<?xml version="1.0" encoding="UTF-8" standalone="no"?>
<!-- Generator: Adobe Illustrator 16.0.0, SVG Export Plug-In . SVG Version: 6.00 Build 0)  -->

<svg
   xmlns:osb="http://www.openswatchbook.org/uri/2009/osb"
   xmlns:dc="http://purl.org/dc/elements/1.1/"
   xmlns:cc="http://creativecommons.org/ns#"
   xmlns:rdf="http://www.w3.org/1999/02/22-rdf-syntax-ns#"
   xmlns:svg="http://www.w3.org/2000/svg"
   xmlns="http://www.w3.org/2000/svg"
   xmlns:sodipodi="http://sodipodi.sourceforge.net/DTD/sodipodi-0.dtd"
   xmlns:inkscape="http://www.inkscape.org/namespaces/inkscape"
   version="1.1"
   id="Layer_1"
   x="0px"
   y="0px"
   width="1091.8323"
   height="410.29865"
   viewBox="-137.167 0 1091.8323 410.29866"
   enable-background="new -137.167 0 487.833 149.333"
   xml:space="preserve"
   sodipodi:docname="download.svg"
   inkscape:version="0.92.3 (2405546, 2018-03-11)"
   inkscape:export-filename="/home/jacotsu/Documents/poul/tema_plymouth_poul/img/download.png"
   inkscape:export-xdpi="418.91"
   inkscape:export-ydpi="418.91"><sodipodi:namedview
   pagecolor="#ffffff"
   bordercolor="#666666"
   borderopacity="1"
   objecttolerance="10"
   gridtolerance="10"
   guidetolerance="10"
   inkscape:pageopacity="0"
   inkscape:pageshadow="2"
   inkscape:window-width="1920"
   inkscape:window-height="1016"
   id="namedview945"
   showgrid="false"
   inkscape:zoom="1.2697672"
   inkscape:cx="582.40429"
   inkscape:cy="259.701"
   inkscape:window-x="0"
   inkscape:window-y="30"
   inkscape:window-maximized="0"
   inkscape:current-layer="g3101"
   fit-margin-top="0"
   fit-margin-left="0"
   fit-margin-right="0"
   fit-margin-bottom="0" />
  <metadata
   id="metadata163"><rdf:RDF><cc:Work
       rdf:about=""><dc:format>image/svg+xml</dc:format><dc:type
         rdf:resource="http://purl.org/dc/dcmitype/StillImage" /><dc:title></dc:title></cc:Work></rdf:RDF></metadata>
  <defs
   id="defs161"><linearGradient
   id="linearGradient2847"
   osb:paint="solid"><stop
     style="stop-color:#547ab0;stop-opacity:1;"
     offset="0"
     id="stop2845" /></linearGradient>
    <clipPath
   clipPathUnits="userSpaceOnUse"
   id="clipPath1133">
      <path
   d="M 0,0 H 595.276 V 841.89 H 0 Z"
   id="path1131"
   inkscape:connector-curvature="0" />
    </clipPath>
  </defs>
  
  
  
  
  
  
  
  
  
  
  
  
  
  
  
  
  
  
  
  
  
  
  
  
  
  
  
  
  
  <g
   id="g3101"
   transform="translate(20.22232,20.222351)"
   style="display:inline"><g
     id="g5084"><g
       id="g24"
       transform="matrix(2.3064998,0,0,2.3364519,-144.85522,-54.57877)"
       style="fill:#000000;stroke:#547ab0;stroke-width:0.64218158;stroke-miterlimit:4;stroke-dasharray:none;stroke-opacity:1">
    <path
   inkscape:connector-curvature="0"
   d="m 25.242,80.871 c -0.08,0.001 -0.071,-0.089 -0.092,-0.155 0.629,0.676 1.481,2.048 0.611,2.911 -0.059,0.409 0.256,0.387 0.258,0.723 -0.449,0.646 -0.775,1.199 -0.311,2.13 -0.601,0.024 -0.819,-0.357 -1.309,-0.428 -0.029,1.016 1.308,1.288 2.009,1.789 -0.202,1.184 0.292,2.715 -0.645,3.533 0.175,0.682 0.404,1.635 0.175,2.283 -0.922,-0.506 -1.993,-0.85 -2.914,-1.355 0.269,-0.254 0.473,0.268 0.911,0.134 0.24,-0.422 0.249,-1.061 0.575,-1.415 -0.07,-0.572 -0.628,-0.635 -0.71,-1.191 0.913,-0.321 1.295,0.633 2.069,0.723 1.311,-1.462 -1.689,-1.431 -2.056,-2.436 0.904,0.06 1.283,0.712 2.243,0.72 0.548,-1.307 -1.875,-1.448 -2.633,-2.173 0.224,-0.582 -0.012,-0.795 -0.127,-1.381 0.874,-0.424 1.109,0.479 1.805,0.493 -0.541,-1.075 -2.305,-1.65 -1.921,-3.181 0.658,-0.374 1.753,0.587 2.223,0.399 0.781,-0.328 0.097,-1.373 -0.161,-2.123 z m -1.544,2.11 c -0.448,0.956 0.677,1.553 1.539,1.646 0.191,-1.003 -0.739,-1.482 -1.539,-1.646 z m 1.929,8.973 c -0.28,-1.27 -1.755,-0.154 -1.139,0.62 0.146,0.155 0.553,0.213 0.914,0.118 0.166,-0.262 0.3,-0.383 0.225,-0.738 z"
   id="path20"
   style="fill:#000000;stroke:#547ab0;stroke-width:0.64218158;stroke-miterlimit:4;stroke-dasharray:none;stroke-opacity:1" />
    <path
   inkscape:connector-curvature="0"
   d="m 21.186,87.655 c -0.158,-0.504 -0.615,-1.283 -0.232,-1.873 1.517,-0.7 1.674,2.291 0.232,1.873 z m 0.172,-1.647 c -0.091,0.27 -0.25,0.766 -0.021,1.067 0.23,-0.015 0.536,0.018 0.63,-0.106 0.206,-0.428 0.102,-1.209 -0.609,-0.961 z"
   id="path22"
   style="fill:#000000;stroke:#547ab0;stroke-width:0.64218158;stroke-miterlimit:4;stroke-dasharray:none;stroke-opacity:1" />
  </g><g
       id="g2173"
       style="fill:none;fill-opacity:1;fill-rule:nonzero;stroke:#547ab0;stroke-width:1.49100006;stroke-linecap:round;stroke-linejoin:round;stroke-miterlimit:4;stroke-dasharray:none;stroke-opacity:1">
    <path
   inkscape:connector-curvature="0"
   id="path35345"
   d="m 197.90096,239.75545 c -11.24591,0.0294 -13.18512,-4.59452 -14.55549,-9.50289 3.36572,-106.09752 -60.03048,-123.12495 -88.44468,-96.83289"
   style="fill:none;fill-opacity:1;fill-rule:nonzero;stroke:#547ab0;stroke-width:1.49100006;stroke-linecap:round;stroke-linejoin:round;stroke-miterlimit:4;stroke-dasharray:none;stroke-dashoffset:20;stroke-opacity:1" />
    <path
   inkscape:connector-curvature="0"
   id="path35347"
   d="m 99.98807,136.27135 c -22.899453,-16.0812 -51.643919,10.88883 -30.553435,34.79791 -4.022313,25.67198 -10.398162,38.06915 -16.76813,54.93742 14.489998,4.82612 30.739523,-7.56525 40.759251,-40.30417"
   style="fill:none;fill-opacity:1;fill-rule:nonzero;stroke:#547ab0;stroke-width:1.49100006;stroke-linecap:round;stroke-linejoin:round;stroke-miterlimit:4;stroke-dasharray:none;stroke-dashoffset:20;stroke-opacity:1" />
    <path
   inkscape:connector-curvature="0"
   id="path35355"
   d="m 197.90096,239.75545 c -4.16272,9.06922 -15.14701,10.07657 -26.58551,10.54714 2.05866,3.95928 1.71407,6.20196 1.48247,8.52536 -4.04359,1.27567 -9.09788,-0.28506 -13.14146,-1.66798 -1.34,2.47838 -3.21411,3.3544 -4.85278,4.93675 -2.64151,-1.23657 -5.61152,-2.14462 -6.6471,-4.98713 -2.36568,-0.71789 -8.15019,0.89501 -13.87469,2.86418 -0.11948,-3.44702 1.94665,-6.1655 3.77412,-8.96354 -2.80968,-0.36487 -5.08449,-1.44289 -6.88355,-3.15526 -2.62315,1.231 -3.77841,2.08889 -7.03352,1.73997 -1.01121,5.92592 -4.85913,8.44782 -9.19943,10.37883 -2.17503,-1.05711 -4.37548,-1.95377 -6.05825,-6.11832 -3.71186,-2.00552 -7.92907,2.69975 -11.640938,3.38849 -0.9598,-4.50224 -3.892615,-4.82459 -5.484468,-6.16654 -2.839053,-1.30677 -5.659344,-1.97098 -9.484293,-1.63458 -0.416576,-1.06301 1.896486,-4.27924 3.835891,-5.24185 5.683226,-2.82084 7.106166,-3.01918 17.745578,-4.04134 -1.16467,-31.4359 2.37121,-49.32315 11.89632,-49.94735"
   style="fill:none;fill-opacity:1;fill-rule:nonzero;stroke:#547ab0;stroke-width:1.49100006;stroke-linecap:round;stroke-linejoin:round;stroke-miterlimit:4;stroke-dasharray:none;stroke-dashoffset:20;stroke-opacity:1" />
    <path
   inkscape:connector-curvature="0"
   id="path35360"
   d="m 73.603283,175.55498 c 1.420555,5.94605 0.06433,9.45634 12.633718,17.43453 9.327373,-9.16 34.214779,-33.97196 17.386419,-39.27685 -3.04878,0.73715 -3.44167,4.87043 -5.768368,7.43449 -4.722122,5.20386 -9.805302,7.09401 -15.660848,5.4379 -2.412213,4.00569 -4.860011,7.93131 -8.590921,8.96993 z"
   style="fill:none;fill-opacity:1;fill-rule:nonzero;stroke:#547ab0;stroke-width:1.49100006;stroke-linecap:round;stroke-linejoin:round;stroke-miterlimit:4;stroke-dasharray:none;stroke-dashoffset:20;stroke-opacity:1" />
    <path
   inkscape:connector-curvature="0"
   id="path35362"
   d="m 124.13894,249.59494 c -1.97592,-0.77494 -2.58566,-3.20327 -4.86041,-3.71673 -5.95786,-1.34483 -13.7133,-0.65879 -15.4255,-5.71858"
   style="fill:none;fill-opacity:1;fill-rule:nonzero;stroke:#547ab0;stroke-width:1.49100006;stroke-linecap:round;stroke-linejoin:round;stroke-miterlimit:4;stroke-dasharray:none;stroke-dashoffset:20;stroke-opacity:1" />
    <path
   inkscape:connector-curvature="0"
   id="path35364"
   d="m 138.05601,251.01023 c 8.62162,-3.44019 17.99622,-5.90152 33.25944,-0.70764"
   style="fill:none;fill-opacity:1;fill-rule:nonzero;stroke:#547ab0;stroke-width:1.49100006;stroke-linecap:round;stroke-linejoin:round;stroke-miterlimit:4;stroke-dasharray:none;stroke-dashoffset:20;stroke-opacity:1" />
    <path
   inkscape:connector-curvature="0"
   id="path35366"
   d="m 69.434635,171.06926 c 1.152036,2.70156 2.76435,4.89682 4.168648,4.48572"
   style="fill:none;fill-opacity:1;fill-rule:nonzero;stroke:#547ab0;stroke-width:1.49100006;stroke-linecap:round;stroke-linejoin:round;stroke-miterlimit:4;stroke-dasharray:none;stroke-dashoffset:20;stroke-opacity:1" />
    <path
   inkscape:connector-curvature="0"
   id="path35368"
   d="m 66.330992,166.94083 c 0.451497,-4.27294 4.749939,-6.62202 7.248796,-6.2411 2.498857,0.38093 4.187611,1.56255 6.928756,8.05879"
   style="fill:none;fill-opacity:1;fill-rule:nonzero;stroke:#547ab0;stroke-width:1.49100006;stroke-linecap:round;stroke-linejoin:round;stroke-miterlimit:4;stroke-dasharray:none;stroke-dashoffset:20;stroke-opacity:1" />
    <path
   inkscape:connector-curvature="0"
   id="path35510"
   d="m 69.434635,171.06926 c 0.411268,-5.9208 7.071275,-4.91265 8.872828,0.72963"
   style="fill:none;fill-opacity:1;fill-rule:nonzero;stroke:#547ab0;stroke-width:1.49100006;stroke-linecap:round;stroke-linejoin:round;stroke-miterlimit:4;stroke-dasharray:none;stroke-dashoffset:20;stroke-opacity:1" />
    <path
   inkscape:connector-curvature="0"
   id="path35526"
   d="m 100.69311,162.19997 c 1.54688,-1.39098 3.21279,-0.84767 3.46128,0.0101 -0.6879,10.85224 -11.074301,24.22 -17.917389,30.77936"
   style="fill:none;fill-opacity:1;fill-rule:nonzero;stroke:#547ab0;stroke-width:1.49100006;stroke-linecap:round;stroke-linejoin:round;stroke-miterlimit:4;stroke-dasharray:none;stroke-dashoffset:20;stroke-opacity:1" />
    <path
   inkscape:connector-curvature="0"
   id="path35528"
   d="m 84.373841,166.89532 c -0.55032,-3.47736 -2.358865,-12.15216 1.977488,-13.9892 4.25708,-1.80347 8.003547,1.9235 11.21604,8.15951"
   style="fill:none;fill-opacity:1;fill-rule:nonzero;stroke:#547ab0;stroke-width:1.49100006;stroke-linecap:round;stroke-linejoin:round;stroke-miterlimit:4;stroke-dasharray:none;stroke-dashoffset:20;stroke-opacity:1" />
    <path
   inkscape:connector-curvature="0"
   id="path847"
   d="m 93.198711,164.24269 c -0.805743,-8.14335 -6.835061,-7.05876 -9.358531,-3.04033"
   style="fill:none;fill-opacity:1;fill-rule:nonzero;stroke:#547ab0;stroke-width:1.49100006;stroke-linecap:round;stroke-linejoin:round;stroke-miterlimit:4;stroke-dasharray:none;stroke-dashoffset:20;stroke-opacity:1" />
    <path
   inkscape:connector-curvature="0"
   id="path849"
   d="m 100.53335,179.57748 c 1.82361,6.65569 5.293,10.72513 9.00023,14.42082"
   style="fill:none;fill-opacity:1;fill-rule:nonzero;stroke:#547ab0;stroke-width:1.49100006;stroke-linecap:round;stroke-linejoin:round;stroke-miterlimit:4;stroke-dasharray:none;stroke-dashoffset:20;stroke-opacity:1" />
    <path
   inkscape:connector-curvature="0"
   id="path855"
   d="m 108.71909,157.58582 c 1.73407,-1.56812 7.11724,-1.26495 10.33384,-0.0325 5.51478,2.11303 6.08177,3.68889 13.14377,11.88024"
   style="fill:none;fill-opacity:1;fill-rule:nonzero;stroke:#547ab0;stroke-width:1.49100006;stroke-linecap:round;stroke-linejoin:round;stroke-miterlimit:4;stroke-dasharray:none;stroke-dashoffset:20;stroke-opacity:1" />
    <path
   inkscape:connector-curvature="0"
   id="path857"
   d="m 131.51153,145.45128 c 0.6328,2.79643 -2.39442,5.88599 -1.73066,9.40887 1.6371,8.68872 4.1951,19.90433 1.93521,31.80811 2.87117,33.47449 7.65566,37.65739 15.7561,45.38036 2.07805,1.98121 7.24372,3.31955 10.93777,2.17768 -1.28574,-9.90309 0.47739,-20.05877 0.21946,-38.77171 -0.12098,-8.77753 -2.94315,-26.0264 -7.74769,-34.12284"
   style="fill:none;fill-opacity:1;fill-rule:nonzero;stroke:#547ab0;stroke-width:1.49100006;stroke-linecap:round;stroke-linejoin:round;stroke-miterlimit:4;stroke-dasharray:none;stroke-dashoffset:20;stroke-opacity:1" />
    <path
   inkscape:connector-curvature="0"
   id="path859"
   d="m 145.53452,248.20425 c 2.03559,-7.64223 2.81429,-6.63484 1.36477,-16.70161"
   style="fill:none;fill-opacity:1;fill-rule:nonzero;stroke:#547ab0;stroke-width:1.49100006;stroke-linecap:round;stroke-linejoin:round;stroke-miterlimit:4;stroke-dasharray:none;stroke-dashoffset:20;stroke-opacity:1" />
    <path
   inkscape:connector-curvature="0"
   id="path854"
   d="m 126.46996,150.26632 c 0.51146,0.87121 0.60154,3.28268 3.13365,3.14356"
   style="fill:none;fill-opacity:1;fill-rule:nonzero;stroke:#547ab0;stroke-width:1.49100006;stroke-linecap:round;stroke-linejoin:round;stroke-miterlimit:4;stroke-dasharray:none;stroke-dashoffset:20;stroke-opacity:1" />
    <path
   inkscape:connector-curvature="0"
   id="path856"
   d="m -75.687127,258.22724 c -15.229103,3.52308 -19.058584,-4.06846 -23.727883,-10.84119 5.913339,0.35146 11.89598,1.36118 17.284539,-3.27281"
   style="fill:none;fill-opacity:1;fill-rule:nonzero;stroke:#547ab0;stroke-width:1.49100006;stroke-linecap:round;stroke-linejoin:round;stroke-miterlimit:4;stroke-dasharray:none;stroke-dashoffset:20;stroke-opacity:1" />
    <path
   inkscape:connector-curvature="0"
   id="path858"
   d="m -52.061511,262.62508 c 7.208166,-18.15961 4.519868,-27.01654 -1.840954,-32.42129 -2.912682,0.78845 -4.931057,3.3655 -7.057005,5.72742 -3.441273,-2.40255 -6.646149,-2.67753 -9.818435,-2.65916 -1.778692,1.65124 -2.924049,4.14692 -3.06826,7.97748 -3.273659,0.44234 -6.357512,1.07449 -8.284306,2.86371 3.68612,20.25254 16.781128,19.59643 30.06896,18.51184 z"
   style="fill:none;fill-opacity:1;fill-rule:nonzero;stroke:#547ab0;stroke-width:1.49100006;stroke-linecap:round;stroke-linejoin:round;stroke-miterlimit:4;stroke-dasharray:none;stroke-dashoffset:20;stroke-opacity:1" />
    <path
   inkscape:connector-curvature="0"
   id="path860"
   d="m -82.130471,244.11324 c -3.829525,-34.82925 8.294906,-49.12007 28.125731,-53.49002 24.147168,-19.5188 42.089989,-20.90528 50.6541211,-19.44977"
   style="fill:none;fill-opacity:1;fill-rule:nonzero;stroke:#547ab0;stroke-width:1.49100006;stroke-linecap:round;stroke-linejoin:round;stroke-miterlimit:4;stroke-dasharray:none;stroke-dashoffset:20;stroke-opacity:1" />
    <path
   inkscape:connector-curvature="0"
   id="path862"
   d="m -3.7795167,176.0478 c 1.885487,-32.18847 40.1969587,-26.311 41.6180647,-4.34553"
   style="fill:none;fill-opacity:1;fill-rule:nonzero;stroke:#547ab0;stroke-width:1.49100006;stroke-linecap:round;stroke-linejoin:round;stroke-miterlimit:4;stroke-dasharray:none;stroke-dashoffset:20;stroke-opacity:1" />
    <path
   inkscape:connector-curvature="0"
   id="path864"
   d="m 37.838548,171.70227 c 0,0 1.645938,10.04125 2.852216,17.99423 0.70885,4.6734 1.26588,8.62571 1.247901,9.39569 -0.0486,2.08028 -2.431139,10.67211 -5.536049,9.55129 -20.439738,-9.74829 -16.421189,-6.82578 -23.212435,-13.82697 -3.4936388,-3.60164 -5.2653391,-6.90298 -4.6023901,-10.53437 0.4928512,-3.64875 4.1446391,-0.97965 6.6030361,-0.69731 0.499321,5.77524 3.829235,6.68494 6.999583,6.32246 3.170348,-0.36249 6.592347,-2.28716 8.053511,-3.73658 1.641906,-0.35199 2.748518,1.55365 5.344566,2.71383 1.810386,0.80907 4.851156,-0.17543 4.145899,-2.25006"
   style="fill:none;fill-opacity:1;fill-rule:nonzero;stroke:#547ab0;stroke-width:1.49100006;stroke-linecap:round;stroke-linejoin:round;stroke-miterlimit:4;stroke-dasharray:none;stroke-dashoffset:20;stroke-opacity:1" />
    <path
   inkscape:connector-curvature="0"
   id="path866"
   d="m -17.960201,221.81325 c 2.15079,-2.09366 6.639381,-6.79628 9.0588993,-13.18957 5.2184686,-3.64054 9.6630892,-7.15247 13.1995576,-8.9886 13.1889501,-6.84769 15.0672261,-0.94924 9.4839651,11.43188 -1.197483,2.65547 -2.941611,3.75914 -4.7853308,7.17061 -1.312153,5.72548 0.7902987,11.31551 1.7536688,16.78815"
   style="fill:none;fill-opacity:1;fill-rule:nonzero;stroke:#547ab0;stroke-width:1.49100006;stroke-linecap:round;stroke-linejoin:round;stroke-miterlimit:4;stroke-dasharray:none;stroke-dashoffset:20;stroke-opacity:1" />
    <path
   inkscape:connector-curvature="0"
   id="path868"
   d="m 15.190827,183.58483 c 1.511008,-2.7592 2.008898,-5.49364 3.355547,-7.1276 2.716019,-3.2955 7.304082,-3.06085 9.448664,2.06399 0.887564,2.121 0.02683,5.36937 0.02504,9.13601"
   style="fill:none;fill-opacity:1;fill-rule:nonzero;stroke:#547ab0;stroke-width:1.49100006;stroke-linecap:round;stroke-linejoin:round;stroke-miterlimit:4;stroke-dasharray:none;stroke-dashoffset:20;stroke-opacity:1" />
    <path
   inkscape:connector-curvature="0"
   id="path870"
   d="m -50.753249,259.86815 c 8.836557,4.06081 17.393586,5.47304 26.230136,2.66769 2.042567,1.42927 3.810473,3.57265 6.531367,3.23825 17.1411005,-3.92579 25.2226456,-10.72762 33.370336,-17.50846 0.08313,-2.13425 -0.275264,-4.36662 -2.799159,-7.08021 0.135281,-1.1815 0.389712,-2.74163 -0.493969,-5.37878 -1.515838,-1.21802 -4.2695289,-0.51534 -6.3118203,-0.54885 -3.2185302,-4.77357 -6.1809596,-5.96161 -9.1109795,-6.69602 -3.2162199,1.11149 -5.6629669,5.06252 -8.4518472,8.45311"
   style="fill:none;fill-opacity:1;fill-rule:nonzero;stroke:#547ab0;stroke-width:1.49100006;stroke-linecap:round;stroke-linejoin:round;stroke-miterlimit:4;stroke-dasharray:none;stroke-dashoffset:20;stroke-opacity:1" />
    <path
   inkscape:connector-curvature="0"
   id="path872"
   d="m 31.899102,186.19023 c 0.326734,-6.41319 0.08672,-13.28599 6.44359,-10.04383"
   style="fill:none;fill-opacity:1;fill-rule:nonzero;stroke:#547ab0;stroke-width:1.49100006;stroke-linecap:round;stroke-linejoin:round;stroke-miterlimit:4;stroke-dasharray:none;stroke-dashoffset:20;stroke-opacity:1" />
    <path
   inkscape:connector-curvature="0"
   id="path874"
   d="m 28.002238,179.8784 c -5.780455,-2.17733 -8.522517,0.48197 -7.13511,9.71472"
   style="fill:none;fill-opacity:1;fill-rule:nonzero;stroke:#547ab0;stroke-width:1.49100006;stroke-linecap:round;stroke-linejoin:round;stroke-miterlimit:4;stroke-dasharray:none;stroke-dashoffset:20;stroke-opacity:1" />
    <path
   inkscape:connector-curvature="0"
   id="path876"
   d="m 32.393071,180.53702 c 4.838455,-3.39406 6.068913,2.88886 7.189986,7.19"
   style="fill:none;fill-opacity:1;fill-rule:nonzero;stroke:#547ab0;stroke-width:1.49100006;stroke-linecap:round;stroke-linejoin:round;stroke-miterlimit:4;stroke-dasharray:none;stroke-dashoffset:20;stroke-opacity:1" />
    <path
   inkscape:connector-curvature="0"
   id="path878"
   d="m 12.908744,188.33339 c 1.57005,1.01283 2.507071,4.07454 4.094124,5.84729 3.858282,4.30977 9.415806,8.25449 13.031822,11.45929"
   style="fill:none;fill-opacity:1;fill-rule:nonzero;stroke:#547ab0;stroke-width:1.49100006;stroke-linecap:round;stroke-linejoin:round;stroke-miterlimit:4;stroke-dasharray:none;stroke-dashoffset:20;stroke-opacity:1" />
    <path
   inkscape:connector-curvature="0"
   id="path880"
   d="m 30.03469,205.63997 c -3.191092,42.02966 7.228686,47.93888 16.521831,54.23778 -8.206338,3.16652 -15.792639,8.32882 -31.177931,-11.61212"
   style="fill:none;fill-opacity:1;fill-rule:nonzero;stroke:#547ab0;stroke-width:1.49100006;stroke-linecap:round;stroke-linejoin:round;stroke-miterlimit:4;stroke-dasharray:none;stroke-dashoffset:20;stroke-opacity:1" />
    <path
   inkscape:connector-curvature="0"
   id="path882"
   d="m -17.776031,198.32029 c -3.861405,32.22475 6.575629,43.47537 18.6470925,48.36853 2.9140835,1.18123 3.2576408,7.91839 1.9845536,10.71529 -38.5791971,3.15709 -47.0217271,-21.48178 -40.4242591,-59.99249"
   style="fill:none;fill-opacity:1;fill-rule:nonzero;stroke:#547ab0;stroke-width:1.49100006;stroke-linecap:round;stroke-linejoin:round;stroke-miterlimit:4;stroke-dasharray:none;stroke-dashoffset:20;stroke-opacity:1" />
    <path
   inkscape:connector-curvature="0"
   id="path884"
   d="m -22.045656,254.68641 c -0.832458,3.51411 -1.653474,5.16431 -2.477457,7.84943"
   style="fill:none;fill-opacity:1;fill-rule:nonzero;stroke:#547ab0;stroke-width:1.49100006;stroke-linecap:round;stroke-linejoin:round;stroke-miterlimit:4;stroke-dasharray:none;stroke-dashoffset:20;stroke-opacity:1" />
    <path
   inkscape:connector-curvature="0"
   id="path886"
   d="m -33.754205,244.21139 c -6.279216,8.78857 -4.734249,14.09972 -3.298182,19.45927"
   style="fill:none;fill-opacity:1;fill-rule:nonzero;stroke:#547ab0;stroke-width:1.49100006;stroke-linecap:round;stroke-linejoin:round;stroke-miterlimit:4;stroke-dasharray:none;stroke-dashoffset:20;stroke-opacity:1" />
    <path
   inkscape:connector-curvature="0"
   id="path888"
   d="m 8.9572504,218.15575 c -3.7178812,1.77871 -6.7175055,0.32527 -9.5647276,-1.81399"
   style="fill:none;fill-opacity:1;fill-rule:nonzero;stroke:#547ab0;stroke-width:1.49100006;stroke-linecap:round;stroke-linejoin:round;stroke-miterlimit:4;stroke-dasharray:none;stroke-dashoffset:20;stroke-opacity:1" />
    <path
   inkscape:connector-curvature="0"
   id="path892"
   d="m 8.9968902,218.23757 c 0,0 -1.3495417,9.51045 -4.240138,14.3615"
   style="fill:none;fill-opacity:1;fill-rule:nonzero;stroke:#547ab0;stroke-width:1.49100006;stroke-linecap:round;stroke-linejoin:round;stroke-miterlimit:4;stroke-dasharray:none;stroke-dashoffset:20;stroke-opacity:1" />
    <path
   inkscape:connector-curvature="0"
   style="fill:none;fill-opacity:1;fill-rule:nonzero;stroke:#547ab0;stroke-width:1.49100006;stroke-linecap:round;stroke-linejoin:round;stroke-miterlimit:4;stroke-dasharray:none;stroke-dashoffset:20;stroke-opacity:1"
   d="M 87.253905,131.49229 C 86.766953,123.73165 89.478893,110.44508 75.541214,99.425482"
   id="path963" />
    <path
   inkscape:connector-curvature="0"
   style="fill:none;fill-opacity:1;fill-rule:nonzero;stroke:#547ab0;stroke-width:1.49100006;stroke-linecap:round;stroke-linejoin:round;stroke-miterlimit:4;stroke-dasharray:none;stroke-dashoffset:20;stroke-opacity:1"
   d="M 42.455199,87.925471 C 33.103372,87.236208 27.670954,87.709033 21.634007,93.311338"
   id="path942" />
    <path
   inkscape:connector-curvature="0"
   style="fill:none;fill-opacity:1;fill-rule:nonzero;stroke:#547ab0;stroke-width:1.49100006;stroke-linecap:round;stroke-linejoin:round;stroke-miterlimit:4;stroke-dasharray:none;stroke-dashoffset:20;stroke-opacity:1"
   d="m 18.69904,90.947325 c 2.69993,-39.117078 -39.327229,-35.210171 -42.348685,-6.012187 -51.179977,21.175782 -46.218722,74.896932 -59.939276,121.363242 -1.627207,5.51075 -10.17743,7.86985 -14.427539,9.53658 2.98818,4.24652 4.452154,9.85957 15.766638,6.64113"
   id="path894" />
    <path
   inkscape:connector-curvature="0"
   id="path896"
   d="M 75.351148,99.828976 C 69.656047,108.11954 61.503154,111.57678 52.800237,113.05084 45.928921,103.72682 45.007703,106.3866 42.455199,87.925471"
   style="fill:none;fill-opacity:1;fill-rule:nonzero;stroke:#547ab0;stroke-width:1.49100006;stroke-linecap:round;stroke-linejoin:round;stroke-miterlimit:4;stroke-dasharray:none;stroke-dashoffset:10;stroke-opacity:1" />
    <path
   inkscape:connector-curvature="0"
   id="path898"
   d="m 43.189527,87.942003 c 2.3912,-0.684356 5.364266,2.272759 7.583222,2.277343 3.206075,0.0067 4.595115,-2.405915 7.418917,-1.768764 2.773689,0.625844 2.87501,4.286755 5.861501,6.316017 1.664953,1.131307 7.373477,0.07074 9.763187,0.785685 1.912311,0.572145 0.565296,2.888852 1.72486,3.873198"
   style="fill:none;fill-opacity:1;fill-rule:nonzero;stroke:#547ab0;stroke-width:1.49100006;stroke-linecap:round;stroke-linejoin:round;stroke-miterlimit:4;stroke-dasharray:none;stroke-dashoffset:10;stroke-opacity:1" />
    <path
   inkscape:connector-curvature="0"
   id="path900"
   d="M 52.800237,113.05084 C 60.589679,109.77733 68.7968,107.00077 71.833306,98.072146"
   style="fill:none;fill-opacity:1;fill-rule:nonzero;stroke:#547ab0;stroke-width:1.49100006;stroke-linecap:round;stroke-linejoin:round;stroke-miterlimit:4;stroke-dasharray:none;stroke-dashoffset:10;stroke-opacity:1" />
    <path
   inkscape:connector-curvature="0"
   id="path904"
   d="m 44.773292,88.065872 c 3.049931,-8.526506 4.691717,-12.554888 7.058335,-12.765498 1.570355,-0.139746 4.314669,0.440236 4.909221,5.979169 0.22033,2.052638 -0.195642,4.109822 -0.131747,7.11638"
   style="fill:none;fill-opacity:1;fill-rule:nonzero;stroke:#547ab0;stroke-width:1.49100006;stroke-linecap:round;stroke-linejoin:round;stroke-miterlimit:4;stroke-dasharray:none;stroke-dashoffset:10;stroke-opacity:1" />
    <path
   inkscape:connector-curvature="0"
   id="path906"
   d="m 61.570835,91.626618 c 0.444461,-5.781065 5.758727,-12.407171 9.495712,-11.454951 1.510807,0.384967 3.281881,0.907668 3.566798,4.930616 0.170918,2.413335 -0.666586,6.600439 -2.280264,10.220309"
   style="fill:none;fill-opacity:1;fill-rule:nonzero;stroke:#547ab0;stroke-width:1.49100006;stroke-linecap:round;stroke-linejoin:round;stroke-miterlimit:4;stroke-dasharray:none;stroke-dashoffset:10;stroke-opacity:1" />
    <path
   inkscape:connector-curvature="0"
   id="path908"
   d="m 21.634007,93.311338 c 3.730858,1.829611 15.750765,10.891092 5.609216,15.170372 C 17.626702,105.81847 14.93817,107.96079 8.4251545,106.40617 -1.9376687,101.16384 -5.9406387,97.270584 -6.4116277,94.126526"
   style="fill:none;fill-opacity:1;fill-rule:nonzero;stroke:#547ab0;stroke-width:1.49100006;stroke-linecap:round;stroke-linejoin:round;stroke-miterlimit:4;stroke-dasharray:none;stroke-dashoffset:10;stroke-opacity:1" />
    <path
   inkscape:connector-curvature="0"
   id="path910"
   d="m 21.634007,93.311338 c -1.423194,-1.877709 -3.534955,-3.165563 -4.958149,-2.225597 -3.251133,3.950107 -5.345356,4.982448 -7.9961383,4.730112 -10.8452762,1.132604 -9.252842,-4.910399 -13.1767413,-7.770897 -4.1480451,-0.595715 -5.8647514,1.84773 -6.4194394,5.743707 1.3095293,3.936236 1.4375723,8.069387 7.8835177,11.149557 4.9804509,2.81146 8.2405142,2.18214 11.4581351,1.46795"
   style="fill:none;fill-opacity:1;fill-rule:nonzero;stroke:#547ab0;stroke-width:1.49100006;stroke-linecap:round;stroke-linejoin:round;stroke-miterlimit:4;stroke-dasharray:none;stroke-dashoffset:10;stroke-opacity:1" />
    <path
   inkscape:connector-curvature="0"
   id="path912"
   d="M 15.201285,92.760071 C 14.502058,89.879113 14.510786,87.377006 13.674162,85.352909 10.785831,78.364982 6.4297257,77.074334 3.1449006,85.560947 2.2275503,87.931008 2.5130119,91.06361 1.5194084,95.047633"
   style="fill:none;fill-opacity:1;fill-rule:nonzero;stroke:#547ab0;stroke-width:1.49100006;stroke-linecap:round;stroke-linejoin:round;stroke-miterlimit:4;stroke-dasharray:none;stroke-dashoffset:10;stroke-opacity:1" />
    <path
   inkscape:connector-curvature="0"
   id="path914"
   d="M 6.5344901,95.952587 C 5.8858079,87.210851 8.9658895,84.89088 13.70429,85.426904"
   style="fill:none;fill-opacity:1;fill-rule:nonzero;stroke:#547ab0;stroke-width:1.49100006;stroke-linecap:round;stroke-linejoin:round;stroke-miterlimit:4;stroke-dasharray:none;stroke-dashoffset:10;stroke-opacity:1" />
    <path
   inkscape:connector-curvature="0"
   id="path918"
   d="m -27.033814,131.47741 c 16.55023,-27.17395 26.25472918,-25.21315 23.3211239,9.96118"
   style="fill:none;fill-opacity:1;fill-rule:nonzero;stroke:#547ab0;stroke-width:1.49100006;stroke-linecap:round;stroke-linejoin:round;stroke-miterlimit:4;stroke-dasharray:none;stroke-dashoffset:10;stroke-opacity:1" />
    <path
   inkscape:connector-curvature="0"
   id="path920"
   d="m 2.6883051,106.93719 c -4.3518122,0.4172 -6.7542328,5.54255 -7.8460563,8.92338"
   style="fill:none;fill-opacity:1;fill-rule:nonzero;stroke:#547ab0;stroke-width:1.49100006;stroke-linecap:round;stroke-linejoin:round;stroke-miterlimit:4;stroke-dasharray:none;stroke-dashoffset:10;stroke-opacity:1" />
    <path
   inkscape:connector-curvature="0"
   id="path924"
   d="m -27.033814,131.47741 c 0.767474,13.81418 5.922063,19.37046 10.170952,28.13765 3.535134,-11.10232 10.8608165,-16.78131 18.1482174,-21.82228"
   style="fill:none;fill-opacity:1;fill-rule:nonzero;stroke:#547ab0;stroke-width:1.49100006;stroke-linecap:round;stroke-linejoin:round;stroke-miterlimit:4;stroke-dasharray:none;stroke-dashoffset:10;stroke-opacity:1" />
    <path
   inkscape:connector-curvature="0"
   id="path926"
   d="m -26.683504,109.89357 c -1.120446,6.79314 -0.685027,14.20863 -0.35031,21.58384"
   style="fill:none;fill-opacity:1;fill-rule:nonzero;stroke:#547ab0;stroke-width:1.49100006;stroke-linecap:round;stroke-linejoin:round;stroke-miterlimit:4;stroke-dasharray:none;stroke-dashoffset:10;stroke-opacity:1" />
    <path
   inkscape:connector-curvature="0"
   id="path928"
   d="m -16.862862,159.61506 c -0.571587,3.33477 -1.074836,6.80623 -1.054278,11.3253"
   style="fill:none;fill-opacity:1;fill-rule:nonzero;stroke:#547ab0;stroke-width:1.49100006;stroke-linecap:round;stroke-linejoin:round;stroke-miterlimit:4;stroke-dasharray:none;stroke-dashoffset:10;stroke-opacity:1" />
    <path
   inkscape:connector-curvature="0"
   id="path930"
   d="m -50.784548,127.2314 c -3.47358,26.57979 1.102953,38.53999 16.540205,49.81102"
   style="fill:none;fill-opacity:1;fill-rule:nonzero;stroke:#547ab0;stroke-width:1.49100006;stroke-linecap:round;stroke-linejoin:round;stroke-miterlimit:4;stroke-dasharray:none;stroke-dashoffset:10;stroke-opacity:1" />
    <path
   inkscape:connector-curvature="0"
   style="fill:none;fill-opacity:1;fill-rule:nonzero;stroke:#547ab0;stroke-width:1.49100006;stroke-linecap:round;stroke-linejoin:round;stroke-miterlimit:4;stroke-dasharray:none;stroke-opacity:1"
   d="m 41.40311,157.55827 c 6.127217,28.09065 13.521521,31.43636 21.583753,37.51624 1.453107,-13.48019 2.109025,-45.14279 -22.225109,-59.30012"
   id="path969" />
    <path
   inkscape:connector-curvature="0"
   id="path944"
   d="m 34.430048,145.45436 c -3.593677,5.54867 -6.19862,7.82986 -14.326208,8.35765"
   style="fill:none;fill-opacity:1;fill-rule:nonzero;stroke:#547ab0;stroke-width:1.49100006;stroke-linecap:round;stroke-linejoin:round;stroke-miterlimit:4;stroke-dasharray:none;stroke-opacity:1" />
    <path
   inkscape:connector-curvature="0"
   id="path946"
   d="m 5.5034382,145.4459 c -0.3976793,-1.25746 -0.042378,-5.34386 4.8740688,-4.03085 3.220109,0.85998 6.037265,-0.0806 8.083759,-1.16265 3.246637,-1.71659 2.223043,1.49522 6.619606,1.9159 4.696173,0.44934 8.006716,-1.49334 10.282001,-0.98762 1.672996,0.37186 3.042223,2.88923 2.682558,4.54723"
   style="fill:none;fill-opacity:1;fill-rule:nonzero;stroke:#547ab0;stroke-width:1.49100006;stroke-linecap:round;stroke-linejoin:round;stroke-miterlimit:4;stroke-dasharray:none;stroke-opacity:1" />
    <path
   inkscape:connector-curvature="0"
   id="path948"
   d="M 7.5230286,141.30308 C 6.0946931,128.85511 17.802896,125.82954 17.840275,140.23499"
   style="fill:none;fill-opacity:1;fill-rule:nonzero;stroke:#547ab0;stroke-width:1.49100006;stroke-linecap:round;stroke-linejoin:round;stroke-miterlimit:4;stroke-dasharray:none;stroke-opacity:1" />
    <path
   inkscape:connector-curvature="0"
   id="path950"
   d="m 22.562813,141.39909 c -2.113971,-10.09391 9.566166,-17.07672 11.098223,-0.24244"
   style="fill:none;fill-opacity:1;fill-rule:nonzero;stroke:#547ab0;stroke-width:1.49100006;stroke-linecap:round;stroke-linejoin:round;stroke-miterlimit:4;stroke-dasharray:none;stroke-opacity:1" />
    <path
   inkscape:connector-curvature="0"
   id="path952"
   d="m 17.056399,135.90642 c -4.820326,-2.16764 -6.28391,-0.59507 -6.474968,4.79588"
   style="fill:none;fill-opacity:1;fill-rule:nonzero;stroke:#547ab0;stroke-width:1.49100006;stroke-linecap:round;stroke-linejoin:round;stroke-miterlimit:4;stroke-dasharray:none;stroke-opacity:1" />
    <path
   inkscape:connector-curvature="0"
   id="path954"
   d="m 22.985271,136.13658 c 2.865251,-0.20621 6.683058,-3.61768 7.62026,5.62736"
   style="fill:none;fill-opacity:1;fill-rule:nonzero;stroke:#547ab0;stroke-width:1.49100006;stroke-linecap:round;stroke-linejoin:round;stroke-miterlimit:4;stroke-dasharray:none;stroke-opacity:1" />
    <path
   inkscape:connector-curvature="0"
   id="path956"
   d="m 3.5746174,154.94941 c -0.8268675,2.83194 -0.8026696,3.13205 -1.8764099,5.47026"
   style="fill:none;fill-opacity:1;fill-rule:nonzero;stroke:#547ab0;stroke-width:1.49100006;stroke-linecap:round;stroke-linejoin:round;stroke-miterlimit:4;stroke-dasharray:none;stroke-opacity:1" />
    <path
   inkscape:connector-curvature="0"
   id="path958"
   d="m 57.972542,191.48175 c 0.485278,9.49985 -0.178208,18.92118 -1.929052,25.93644"
   style="fill:none;fill-opacity:1;fill-rule:nonzero;stroke:#547ab0;stroke-width:1.49100006;stroke-linecap:round;stroke-linejoin:round;stroke-miterlimit:4;stroke-dasharray:none;stroke-opacity:1" />
    <path
   inkscape:connector-curvature="0"
   id="path960"
   d="m 47.556655,177.91247 c 0.530925,15.4042 8.295494,62.19218 -17.278282,51.47728"
   style="fill:none;fill-opacity:1;fill-rule:nonzero;stroke:#547ab0;stroke-width:1.49100006;stroke-linecap:round;stroke-linejoin:round;stroke-miterlimit:4;stroke-dasharray:none;stroke-opacity:1" />
    <path
   inkscape:connector-curvature="0"
   id="path962"
   d="m 44.850967,226.69592 c 2.868018,-0.52913 6.778352,0.16483 9.167189,-4.1977"
   style="fill:none;fill-opacity:1;fill-rule:nonzero;stroke:#547ab0;stroke-width:1.49100006;stroke-linecap:round;stroke-linejoin:round;stroke-miterlimit:4;stroke-dasharray:none;stroke-opacity:1" />
    <path
   inkscape:connector-curvature="0"
   id="path964"
   d="m 64.718084,84.220528 c 3.586603,0.422315 7.04684,1.041189 4.448012,11.085285"
   style="fill:none;fill-opacity:1;fill-rule:nonzero;stroke:#547ab0;stroke-width:1.49100006;stroke-linecap:round;stroke-linejoin:round;stroke-miterlimit:4;stroke-dasharray:none;stroke-opacity:1" />
    <path
   inkscape:connector-curvature="0"
   id="path966"
   d="m 49.103339,89.813578 c 1.43389,-5.075012 2.430773,-9.798401 7.589797,-7.761797"
   style="fill:none;fill-opacity:1;fill-rule:nonzero;stroke:#547ab0;stroke-width:1.49100006;stroke-linecap:round;stroke-linejoin:round;stroke-miterlimit:4;stroke-dasharray:none;stroke-opacity:1" />
    <path
   inkscape:connector-curvature="0"
   id="path968"
   d="m 33.403856,244.16314 c 1.48404,-1.13507 2.713589,-1.76115 4.509082,-3.51914 2.588937,1.70676 4.833945,2.55371 6.720137,2.50359 1.534055,-1.63159 3.101482,-3.19645 3.953021,-6.19307 2.571906,-0.22449 4.399749,1.03914 7.906044,-1.05414 1.656754,-4.13911 -1.94967,-7.15039 -5.038584,-10.27258"
   style="fill:none;fill-opacity:1;fill-rule:nonzero;stroke:#547ab0;stroke-width:1.49100006;stroke-linecap:round;stroke-linejoin:round;stroke-miterlimit:4;stroke-dasharray:none;stroke-opacity:1" />
    <path
   inkscape:connector-curvature="0"
   id="path970"
   d="m 84.382905,208.46803 c 2.758648,1.4987 5.746577,2.48151 7.159365,7.0084 -0.686749,1.22741 -0.607239,2.34829 -6.851899,4.34833 0.299542,2.65133 -1.233932,4.93606 -2.635353,7.2472 -3.159652,0.34446 -5.702412,-0.85329 -8.169576,-2.24004 -1.229832,1.84474 -2.811041,3.3381 -4.743626,4.48009 -3.057541,2.17241 -3.426903,-1.03152 -4.519718,-2.78855"
   style="fill:none;fill-opacity:1;fill-rule:nonzero;stroke:#547ab0;stroke-width:1.49100006;stroke-linecap:round;stroke-linejoin:round;stroke-miterlimit:4;stroke-dasharray:none;stroke-opacity:1" />
    <path
   inkscape:connector-curvature="0"
   id="path972"
   d="m 70.842809,243.26738 c -10.280912,2.82672 -13.074265,17.20785 -12.817374,36.29593 -1.222565,1.06583 -1.357771,3.83454 -4.79154,1.43746 -3.045346,-5.79374 -6.598489,-10.54616 -13.364087,-8.71098 2.041017,6.88458 0.23836,11.19529 -0.605249,16.14821 -0.327248,0.2955 6.036071,5.87555 6.623497,11.68539 5.106415,-1.79208 10.168829,-1.95513 10.056886,-10.61818 38.971339,-3.25555 20.738579,-46.61823 14.897867,-46.23783 z"
   style="fill:none;fill-opacity:1;fill-rule:nonzero;stroke:#547ab0;stroke-width:1.49100006;stroke-linecap:round;stroke-linejoin:round;stroke-miterlimit:4;stroke-dasharray:none;stroke-opacity:1" />
    <path
   inkscape:connector-curvature="0"
   id="path974"
   d="m 53.265097,281.02247 c -1.504746,2.02884 -4.56667,3.4873 2.681627,8.72226"
   style="fill:none;fill-opacity:1;fill-rule:nonzero;stroke:#547ab0;stroke-width:1.49100006;stroke-linecap:round;stroke-linejoin:round;stroke-miterlimit:4;stroke-dasharray:none;stroke-opacity:1" />
    <path
   inkscape:connector-curvature="0"
   id="path976"
   d="m 45.143085,280.92938 c 2.68715,-0.53366 4.576472,0.84221 6.294609,2.6278"
   style="fill:none;fill-opacity:1;fill-rule:nonzero;stroke:#547ab0;stroke-width:1.49100006;stroke-linecap:round;stroke-linejoin:round;stroke-miterlimit:4;stroke-dasharray:none;stroke-opacity:1" />
    <path
   inkscape:connector-curvature="0"
   id="path978"
   d="m 45.89674,289.60329 c 2.017724,-2.09215 4.03257,-3.07459 6.04237,-3.58648"
   style="fill:none;fill-opacity:1;fill-rule:nonzero;stroke:#547ab0;stroke-width:1.49100006;stroke-linecap:round;stroke-linejoin:round;stroke-miterlimit:4;stroke-dasharray:none;stroke-opacity:1" />
    <path
   inkscape:connector-curvature="0"
   id="path980"
   d="m 49.844917,294.08113 c 3.542469,-2.40311 3.636157,-4.11646 4.101227,-5.90409"
   style="fill:none;fill-opacity:1;fill-rule:nonzero;stroke:#547ab0;stroke-width:1.49100006;stroke-linecap:round;stroke-linejoin:round;stroke-miterlimit:4;stroke-dasharray:none;stroke-opacity:1" />
    <path
   inkscape:connector-curvature="0"
   id="path982"
   d="m 58.842262,263.046 c 6.968716,-4.84808 14.091766,-4.04965 21.368589,2.3756"
   style="fill:none;fill-opacity:1;fill-rule:nonzero;stroke:#547ab0;stroke-width:1.49100006;stroke-linecap:round;stroke-linejoin:round;stroke-miterlimit:4;stroke-dasharray:none;stroke-opacity:1" />
    <path
   inkscape:connector-curvature="0"
   id="path984"
   d="m 71.196705,243.29411 c -1.037977,3.75859 -1.714231,7.51209 1.007848,11.21779"
   style="fill:none;fill-opacity:1;fill-rule:nonzero;stroke:#547ab0;stroke-width:1.49100006;stroke-linecap:round;stroke-linejoin:round;stroke-miterlimit:4;stroke-dasharray:none;stroke-opacity:1" />
    <path
   inkscape:connector-curvature="0"
   id="path988"
   d="m 58.081712,272.60961 c -4.528,0.34244 -8.547197,-0.76862 -10.852962,-6.7744 5.00171,-1.13208 7.5671,-6.03827 9.758104,-11.5244 1.960642,-1.67188 2.967759,-1.02988 3.862047,-0.11408"
   style="fill:none;fill-opacity:1;fill-rule:nonzero;stroke:#547ab0;stroke-width:1.49100006;stroke-linecap:round;stroke-linejoin:round;stroke-miterlimit:4;stroke-dasharray:none;stroke-opacity:1" />
    <path
   inkscape:connector-curvature="0"
   id="path990"
   d="m 59.421235,259.57416 c -2.812114,2.80147 -5.091849,4.10963 -5.570016,5.23712"
   style="fill:none;fill-opacity:1;fill-rule:nonzero;stroke:#547ab0;stroke-width:1.49100006;stroke-linecap:round;stroke-linejoin:round;stroke-miterlimit:4;stroke-dasharray:none;stroke-opacity:1" />
    <path
   inkscape:connector-curvature="0"
   id="path992"
   d="m 58.631585,264.72399 c -2.143463,0.67507 -2.773607,1.72847 -3.706253,2.70625"
   style="fill:none;fill-opacity:1;fill-rule:nonzero;stroke:#547ab0;stroke-width:1.49100006;stroke-linecap:round;stroke-linejoin:round;stroke-miterlimit:4;stroke-dasharray:none;stroke-opacity:1" />
    <path
   inkscape:connector-curvature="0"
   id="path994"
   d="m 64.451665,257.7975 c 1.200218,0.31311 2.862159,-0.82196 3.114503,-2.0364 0.246001,-1.18393 -0.623272,-2.95652 -1.994057,-3.03043 -1.156277,-0.0623 -2.326247,1.2534 -2.515554,2.39577 -0.164224,0.99097 0.423158,2.41749 1.395108,2.67106 z"
   style="fill:none;fill-opacity:1;fill-rule:nonzero;stroke:#547ab0;stroke-width:1.49100006;stroke-linecap:round;stroke-linejoin:round;stroke-miterlimit:4;stroke-dasharray:none;stroke-opacity:1" />
    <path
   inkscape:connector-curvature="0"
   id="path996"
   d="m 31.731844,275.99959 c -4.33803,1.07137 -3.969323,3.4894 -5.899583,4.16266 -1.930259,0.67326 -4.388768,-2.19612 -0.988259,-5.15091 3.400517,-2.95479 6.983707,-0.76867 6.887842,0.98825 z"
   style="fill:none;fill-opacity:1;fill-rule:nonzero;stroke:#547ab0;stroke-width:1.49100006;stroke-linecap:round;stroke-linejoin:round;stroke-miterlimit:4;stroke-dasharray:none;stroke-opacity:1" />
    <path
   inkscape:connector-curvature="0"
   id="path998"
   d="m 29.395974,287.46935 c 0.210721,0.89477 -0.358689,2.10458 -0.212704,2.90813 0.575082,3.16547 1.746021,4.71389 0.811646,6.79475 -0.277024,0.61692 -0.997054,1.26152 -1.665437,1.15858 -0.781295,-0.12033 -1.298088,-1.10136 -1.449066,-1.87732 -0.593979,-3.05264 0.877181,-7.77735 2.515561,-8.98414 z"
   style="fill:none;fill-opacity:1;fill-rule:nonzero;stroke:#547ab0;stroke-width:1.49100006;stroke-linecap:round;stroke-linejoin:round;stroke-miterlimit:4;stroke-dasharray:none;stroke-opacity:1" />
    <path
   inkscape:connector-curvature="0"
   id="path1000"
   d="m 0.3548647,107.49802 c -0.7175338,10.8596 0.7999617,14.05579 1.9549122,17.7375"
   style="fill:none;fill-opacity:1;fill-rule:nonzero;stroke:#547ab0;stroke-width:1.49100006;stroke-linecap:round;stroke-linejoin:round;stroke-miterlimit:4;stroke-dasharray:none;stroke-opacity:1" />
    <path
   inkscape:connector-curvature="0"
   id="path1004"
   d="M 44.952198,170.84882 C 39.480745,160.34385 38.110549,160.65758 32.754005,160.20889"
   style="fill:none;fill-opacity:1;fill-rule:nonzero;stroke:#547ab0;stroke-width:1.49100006;stroke-linecap:round;stroke-linejoin:round;stroke-miterlimit:4;stroke-dasharray:none;stroke-opacity:1" />
    <path
   inkscape:connector-curvature="0"
   id="path1014"
   d="m 5.5034382,145.4459 c 0.8229617,4.14961 1.8953551,7.19626 4.4699884,9.24387"
   style="fill:none;fill-opacity:1;fill-rule:nonzero;stroke:#547ab0;stroke-width:1.49100006;stroke-linecap:round;stroke-linejoin:round;stroke-miterlimit:4;stroke-dasharray:none;stroke-opacity:1" />
    <path
   inkscape:connector-curvature="0"
   id="path1016"
   d="m 38.045431,145.72791 c -1.405781,4.14388 -3.513622,7.63789 -10.170199,10.73161"
   style="fill:none;fill-opacity:1;fill-rule:nonzero;stroke:#547ab0;stroke-width:1.49100006;stroke-linecap:round;stroke-linejoin:round;stroke-miterlimit:4;stroke-dasharray:none;stroke-opacity:1" />
    <path
   inkscape:connector-curvature="0"
   style="opacity:1;fill:none;fill-opacity:1;fill-rule:nonzero;stroke:#547ab0;stroke-width:1.49100006;stroke-linecap:round;stroke-linejoin:round;stroke-miterlimit:4;stroke-dasharray:none;stroke-dashoffset:0;stroke-opacity:1;paint-order:markers stroke fill"
   d="m 37.55937,143.14132 c 2.27375,-2.69011 3.679698,-7.35832 3.343216,-10.47991 6.9e-4,-11.05061 -8.9572,-20.00937 -20.00781,-20.00976 -11.0506097,3.9e-4 -20.00849971,8.95915 -20.00780971,20.00976 0.007,2.68592 -0.17090512,8.16556 4.50248001,12.08211"
   id="path961" />
    <path
   inkscape:connector-curvature="0"
   id="path1104"
   d="m 75.541214,99.425482 c 5.17719,-3.84314 8.118323,-11.532744 8.121013,-17.673988 9.6e-4,-11.189371 -8.298187,-20.692383 -20.391747,-20.691718 -12.0928,3.37e-4 -21.179293,10.360935 -21.178333,21.549597 0.002,1.187325 0.137182,4.147308 0.363052,5.316098"
   style="opacity:1;fill:none;fill-opacity:1;fill-rule:nonzero;stroke:#547ab0;stroke-width:1.49100006;stroke-linecap:round;stroke-linejoin:round;stroke-miterlimit:4;stroke-dasharray:none;stroke-dashoffset:0;stroke-opacity:1;paint-order:markers stroke fill" />
    <path
   inkscape:connector-curvature="0"
   id="path1111"
   d="m 13.13497,107.0262 c -1.735319,2.6452 -3.2535556,5.46407 -3.63966,9.18865"
   style="fill:none;fill-opacity:1;fill-rule:nonzero;stroke:#547ab0;stroke-width:1.49100006;stroke-linecap:round;stroke-linejoin:round;stroke-miterlimit:4;stroke-dasharray:none;stroke-opacity:1" />
    <path
   inkscape:connector-curvature="0"
   id="path1113"
   d="m 30.294197,114.99277 c 24.342688,-1.55126 35.126919,18.84921 33.490848,30.34405"
   style="fill:none;fill-opacity:1;fill-rule:nonzero;stroke:#547ab0;stroke-width:1.49100006;stroke-linecap:round;stroke-linejoin:round;stroke-miterlimit:4;stroke-dasharray:none;stroke-opacity:1" />
    <path
   inkscape:connector-curvature="0"
   id="path1115"
   d="m 30.899497,111.4858 c -0.815585,0.5999 -1.385932,1.56765 -1.65597,2.98587"
   style="fill:none;fill-opacity:1;fill-rule:nonzero;stroke:#547ab0;stroke-width:1.49100006;stroke-linecap:round;stroke-linejoin:round;stroke-miterlimit:4;stroke-dasharray:none;stroke-opacity:1" />
    <path
   inkscape:connector-curvature="0"
   id="path1117"
   d="m 63.573013,125.73287 c 2.334303,6.29591 1.011798,12.22613 0.836297,18.27105"
   style="fill:none;fill-opacity:1;fill-rule:nonzero;stroke:#547ab0;stroke-width:1.49100006;stroke-linecap:round;stroke-linejoin:round;stroke-miterlimit:4;stroke-dasharray:none;stroke-opacity:1" />
    <path
   inkscape:connector-curvature="0"
   id="path1119"
   d="m 62.74661,158.92221 c 0.08012,4.93638 -0.101466,8.17168 -0.40602,10.60769"
   style="fill:none;fill-opacity:1;fill-rule:nonzero;stroke:#547ab0;stroke-width:1.49100006;stroke-linecap:round;stroke-linejoin:round;stroke-miterlimit:4;stroke-dasharray:none;stroke-opacity:1" />
  </g></g><path
     inkscape:connector-curvature="0"
     style="opacity:1;fill:#547ab0;fill-opacity:0.98917745;stroke:#000000;stroke-width:0;stroke-linecap:square;stroke-linejoin:miter;stroke-miterlimit:4;stroke-dasharray:none;stroke-dashoffset:0;stroke-opacity:1;paint-order:markers stroke fill"
     d="m 227.36766,195.78352 c 0,0 -0.22702,3.12675 -0.22702,3.12675 0,0 -15.86341,-1.15214 -15.86341,-1.15214 0,0 0.22702,-3.12669 0.22702,-3.12669 0,0 15.86341,1.15208 15.86341,1.15208 m -0.96846,10.64862 c 0,0 -0.41678,3.3099 -0.41678,3.3099 0,0 -15.73032,-2.35237 -15.73032,-2.35237 0,0 0.36234,-2.91134 0.36234,-2.91134 0,0 15.78476,1.95381 15.78476,1.95381 m -1.58116,10.57394 c 0,0 -0.62232,3.27658 -0.62232,3.27658 0,0 -15.59164,-3.143 -15.59164,-3.143 0,0 0.54805,-2.8825 0.54805,-2.8825 0,0 15.66591,2.74892 15.66591,2.74892 m -2.24444,10.65609 c 0,0 -0.77299,3.03813 -0.77299,3.03813 0,0 -15.41399,-3.92284 -15.41399,-3.92284 0,0 0.77299,-3.03813 0.77299,-3.03813 0,0 15.41399,3.92284 15.41399,3.92284 m -2.84497,10.30202 c 0,0 -1.00537,3.17774 -1.00537,3.17774 0,0 -15.07683,-5.06671 -15.07683,-5.06671 0,0 0.88378,-2.80028 0.88378,-2.80028 0,0 15.19842,4.68925 15.19842,4.68925 m -3.4384,10.11716 c 0,0 -1.20368,3.10693 -1.20368,3.10693 0,0 -14.80676,-5.80896 -14.80676,-5.80896 0,0 1.06422,-2.73797 1.06422,-2.73797 0,0 14.94622,5.44 14.94622,5.44 m -4.12893,10.06521 c 0,0 -1.37699,3.03225 -1.37699,3.03225 0,0 -14.33713,-6.88732 -14.33713,-6.88732 0,0 1.21207,-2.67774 1.21207,-2.67774 0,0 14.50205,6.53281 14.50205,6.53281 m -4.63385,9.62208 c 0,0 -1.56491,2.93833 -1.56491,2.93833 0,0 -13.983,-7.58069 -13.983,-7.58069 0,0 1.38386,-2.59432 1.38386,-2.59432 0,0 14.16405,7.23668 14.16405,7.23668 m -5.3006,9.49074 c 0,0 -1.72852,2.84351 -1.72852,2.84351 0,0 -13.39359,-8.5795 -13.39359,-8.5795 0,0 1.5245,-2.51621 1.5245,-2.51621 0,0 13.59761,8.2522 13.59761,8.2522 m -5.7545,8.99044 c 0,0 -1.9029,2.72849 -1.9029,2.72849 0,0 -12.96368,-9.21636 -12.96368,-9.21636 0,0 1.68436,-2.41297 1.68436,-2.41297 0,0 13.18222,8.90084 13.18222,8.90084 m -6.39181,8.78403 c 0,0 -1.93684,2.46486 -1.93684,2.46486 0,0 -12.50556,-9.82915 -12.50556,-9.82915 0,0 1.93684,-2.46485 1.93684,-2.46485 0,0 12.50556,9.82914 12.50556,9.82914 m -6.78484,8.23544 c 0,0 -2.21272,2.48154 -2.21272,2.48154 0,0 -11.76772,-10.70177 -11.76772,-10.70177 0,0 1.96019,-2.19696 1.96019,-2.19696 0,0 12.02025,10.41719 12.02025,10.41719 m -7.38804,7.95822 c 0,0 -2.21709,2.21604 -2.21709,2.21604 0,0 -11.24345,-11.25143 -11.24345,-11.25143 0,0 2.21709,-2.21604 2.21709,-2.21604 0,0 11.24345,11.25143 11.24345,11.25143 m -7.71441,7.36891 c 0,0 -2.49099,2.20106 -2.49099,2.20106 0,0 -10.4105,-12.02648 -10.4105,-12.02648 0,0 2.20726,-1.94941 2.20726,-1.94941 0,0 10.69423,11.77483 10.69423,11.77483 m -8.27909,7.02462 c 0,0 -2.46494,1.9366 -2.46494,1.9366 0,0 -9.82531,-12.50927 -9.82531,-12.50927 0,0 2.46494,-1.9366 2.46494,-1.9366 0,0 9.82531,12.50927 9.82531,12.50927 m -8.53509,6.40096 c 0,0 -2.73495,1.8903 -2.73495,1.8903 0,0 -8.90435,-13.18086 -8.90435,-13.18086 0,0 2.42234,-1.67355 2.42234,-1.67355 0,0 9.21696,12.96411 9.21696,12.96411 m -9.0563,5.99345 c 0,0 -2.67838,1.6286 -2.67838,1.6286 0,0 -8.26265,-13.5924 -8.26265,-13.5924 0,0 2.67838,-1.6286 2.67838,-1.6286 0,0 8.26265,13.5924 8.26265,13.5924 m -9.23872,5.34048 c 0,0 -2.94182,1.55228 -2.94182,1.55228 0,0 -7.26032,-14.1533 -7.26032,-14.1533 0,0 2.60255,-1.37301 2.60255,-1.37301 0,0 7.59959,13.97403 7.59959,13.97403 m -9.71041,4.87485 c 0,0 -2.8549,1.29429 -2.8549,1.29429 0,0 -6.5668,-14.4882 -6.5668,-14.4882 0,0 2.85489,-1.29437 2.85489,-1.29437 0,0 6.56681,14.48828 6.56681,14.48828 m -9.81579,4.19736 c 0,0 -3.10835,1.19098 -3.10835,1.19098 0,0 -5.4911,-14.92925 -5.4911,-14.92925 0,0 2.74525,-1.05226 2.74525,-1.05226 0,0 5.8542,14.79053 5.8542,14.79053 m -10.23076,3.68162 c 0,0 -2.99136,0.93666 -2.99136,0.93666 0,0 -4.75208,-15.18067 -4.75208,-15.18067 0,0 2.991351,-0.93665 2.991351,-0.93665 0,0 4.752089,15.18066 4.752089,15.18066 m -10.255349,2.98536 c 0,0 -3.231127,0.81158 -3.231127,0.81158 0,0 -3.614399,-15.49112 -3.614399,-15.49112 0,0 2.848295,-0.71721 2.848295,-0.71721 0,0 3.997231,15.39675 3.997231,15.39675 m -10.413375,2.38584 c 0,0 -3.277103,0.606 -3.277103,0.606 0,0 -2.839068,-15.65182 -2.839068,-15.65182 0,0 2.887913,-0.53042 2.887913,-0.53042 0,0 3.228258,15.57624 3.228258,15.57624 m -10.739469,1.77015 c 0,0 -3.307335,0.42197 -3.307335,0.42197 0,0 -1.655986,-15.82081 -1.655986,-15.82081 0,0 2.910684,-0.37538 2.910684,-0.37538 0,0 2.052637,15.77422 2.052637,15.77422 m -10.630358,1.10817 c 0,0 -3.327908,0.21363 -3.327908,0.21363 0,0 -0.857406,-15.88409 -0.857406,-15.88409 0,0 2.92785,-0.18702 2.92785,-0.18702 0,0 1.257464,15.85748 1.257464,15.85748 m -10.879735,0.48428 c 0,0 -3.134503,0.0104 -3.134503,0.0104 0,0 -0.05412,-15.9072 -0.05412,-15.9072 0,0 3.13451,-0.0104 3.13451,-0.0104 0,0 0.05412,15.9072 0.05412,15.9072 m -10.689505,-0.17725 c 0,0 -3.331188,-0.17286 -3.331188,-0.17286 0,0 1.152826,-15.86545 1.152826,-15.86545 0,0 2.929327,0.14878 2.929327,0.14878 0,0 -0.750965,15.88953 -0.750965,15.88953 m -10.661597,-0.79004 c 0,0 -3.314097,-0.37731 -3.314097,-0.37731 0,0 1.95406,-15.78682 1.95406,-15.78682 0,0 2.914113,0.33296 2.914113,0.33296 0,0 -1.554076,15.83117 -1.554076,15.83117 m -10.795291,-1.44225 c 0,0 -3.087364,-0.54183 -3.087364,-0.54183 0,0 2.748704,-15.66792 2.748704,-15.66792 0,0 3.087364,0.54182 3.087364,0.54182 0,0 -2.748704,15.66793 -2.748704,15.66793 M 7.7742062,360.37279 c 0,0 -3.2457145,-0.76216 -3.2457145,-0.76216 0,0 3.9220284,-15.41606 3.9220284,-15.41606 0,0 2.8575379,0.66854 2.8575379,0.66854 0,0 -3.5338518,15.50968 -3.5338518,15.50968 m -10.3491676,-2.6664 c 0,0 -3.1904143,-0.96483 -3.1904143,-0.96483 0,0 4.6880798,-15.20057 4.6880798,-15.20057 0,0 2.8092072,0.85242 2.8092072,0.85242 0,0 -4.3068727,15.31298 -4.3068727,15.31298 m -10.3528276,-3.35477 c 0,0 -3.129673,-1.14239 -3.129673,-1.14239 0,0 5.807334,-14.80909 5.807334,-14.80909 0,0 2.7608913,1.00307 2.7608913,1.00307 0,0 -5.4385523,14.94841 -5.4385523,14.94841 m -9.945681,-3.89735 c 0,0 -3.05005,-1.33737 -3.05005,-1.33737 0,0 6.530882,-14.50445 6.530882,-14.50445 0,0 2.690676,1.18084 2.690676,1.18084 0,0 -6.171508,14.66098 -6.171508,14.66098 m -9.869152,-4.56699 c 0,0 -2.791512,-1.42593 -2.791512,-1.42593 0,0 7.234507,-14.16649 7.234507,-14.16649 0,0 2.791512,1.42592 2.791512,1.42592 0,0 -7.234507,14.1665 -7.234507,14.1665 m -9.397791,-5.06686 c 0,0 -2.866035,-1.69092 -2.866035,-1.69092 0,0 8.249772,-13.60021 8.249772,-13.60021 0,0 2.533159,1.49443 2.533159,1.49443 0,0 -7.916896,13.7967 -7.916896,13.7967 m -9.244911,-5.7114 c 0,0 -2.598083,-1.7539 -2.598083,-1.7539 0,0 8.898283,-13.18488 8.898283,-13.18488 0,0 2.598091,1.75382 2.598091,1.75382 0,0 -8.898291,13.18496 -8.898291,13.18496 m -8.718366,-6.15504 c 0,0 -2.642338,-2.01919 -2.642338,-2.01919 0,0 9.82644,-12.50837 9.82644,-12.50837 0,0 2.339031,1.78677 2.339031,1.78677 0,0 -9.523133,12.74079 -9.523133,12.74079 m -8.493328,-6.7694 c 0,0 -2.369152,-2.05273 -2.369152,-2.05273 0,0 10.414404,-12.02305 10.414404,-12.02305 0,0 2.369143,2.05265 2.369143,2.05265 0,0 -10.414395,12.02313 -10.414395,12.02313 m -7.920243,-7.14851 c 0,0 -2.382897,-2.31801 -2.382897,-2.31801 0,0 11.248569,-11.24628 11.248569,-11.24628 0,0 2.111307,2.05265 2.111307,2.05265 0,0 -10.976979,11.51164 -10.976979,11.51164 m -7.626985,-7.72842 c 0,0 -2.107863,-2.32032 -2.107863,-2.32032 0,0 11.771959,-10.69708 11.771959,-10.69708 0,0 2.107855,2.32025 2.107855,2.32025 0,0 -11.771951,10.69715 -11.771951,10.69715 m -7.01455,-8.0382 c 0,0 -2.091137,-2.58419 -2.091137,-2.58419 0,0 12.506413,-9.8281 12.506413,-9.8281 0,0 1.853179,2.28864 1.853179,2.28864 0,0 -12.268455,10.12365 -12.268455,10.12365 m -6.656674,-8.57905 c 0,0 -1.81674,-2.55467 -1.81674,-2.55467 0,0 12.961319,-9.21972 12.961319,-9.21972 0,0 1.816737,2.55467 1.816737,2.55467 0,0 -12.961316,9.21972 -12.961316,9.21972 m -6.01071,-8.81594 c 0,0 -1.77013,-2.81511 -1.77013,-2.81511 0,0 13.589723,-8.26525 13.589723,-8.26525 0,0 1.568,2.49154 1.568,2.49154 0,0 -13.387593,8.58882 -13.387593,8.58882 m -5.59227,-9.31259 c 0,0 -1.49798,-2.75384 -1.49798,-2.75384 0,0 13.97142,-7.602 13.97142,-7.602 0,0 1.49798,2.75376 1.49798,2.75376 0,0 -13.97142,7.60208 -13.97142,7.60208 m -4.91778,-9.47338 c 0,0 -1.42315,-3.00779 -1.42315,-3.00779 0,0 14.48571,-6.56896 14.48571,-6.56896 0,0 1.25967,2.6585 1.25967,2.6585 0,0 -14.32223,6.91825 -14.32223,6.91825 m -4.36699,-9.74156 c 0,0 -1.23159,-3.09247 -1.23159,-3.09247 0,0 14.78818,-5.85622 14.78818,-5.85622 0,0 1.08449,2.73378 1.08449,2.73378 0,0 -14.64108,6.21491 -14.64108,6.21491 m -3.82439,-10.17784 c 0,0 -1.05452,-3.15888 -1.05452,-3.15888 0,0 15.17841,-4.75365 15.17841,-4.75365 0,0 0.9331,2.78716 0.9331,2.78716 0,0 -15.05699,5.12537 -15.05699,5.12537 m -3.16308,-10.20192 c 0,0 -0.85323,-3.2203 -0.85323,-3.2203 0,0 15.39451,-3.99864 15.39451,-3.99864 0,0 0.74969,2.84083 0.74969,2.84083 0,0 -15.29097,4.37811 -15.29097,4.37811 m -2.57855,-10.5711 c 0,0 -0.67049,-3.26503 -0.67049,-3.26503 0,0 15.64967,-2.84001 15.64967,-2.84001 0,0 0.59482,2.87571 0.59482,2.87571 0,0 -15.574,3.22933 -15.574,3.22933 m -1.90599,-10.51521 c 0,0 -0.46336,-3.3017 -0.46336,-3.3017 0,0 15.77214,-2.05325 15.77214,-2.05325 0,0 0.40696,2.90702 0.40696,2.90702 0,0 -15.71574,2.44793 -15.71574,2.44793 m -1.2983,-10.81104 c 0,0 -0.24785,-3.12512 -0.24785,-3.12512 0,0 15.85539,-1.25785 15.85539,-1.25785 0,0 0.24785,3.12512 0.24785,3.12512 0,0 -15.85539,1.25785 -15.85539,1.25785 m -0.62154,-10.67293 c 0,0 -0.0719,-3.3351 -0.0719,-3.3351 0,0 15.9051,-0.0537 15.9051,-0.0537 0,0 0.0655,2.93288 0.0655,2.93288 0,0 -15.89865,0.45618 -15.89865,0.45618 m -0.003,-10.69201 c 0,0 0.13452,-3.33353 0.13452,-3.33353 0,0 15.88743,0.75142 15.88743,0.75142 0,0 -0.12058,2.9308 -0.12058,2.9308 0,0 -15.90137,-0.34869 -15.90137,-0.34869 m 0.64353,-10.87404 c 0,0 0.30607,-3.11997 0.30607,-3.11997 0,0 15.82918,1.55324 15.82918,1.55324 0,0 -0.30607,3.11998 -0.30607,3.11998 0,0 -15.82918,-1.55325 -15.82918,-1.55325 m 1.26936,-10.61635 c 0,0 0.51686,-3.29529 0.51686,-3.29529 0,0 15.66601,2.7484 15.66601,2.7484 0,0 -0.45248,2.89874 -0.45248,2.89874 0,0 -15.73039,-2.35185 -15.73039,-2.35185 m 1.88093,-10.52407 c 0,0 0.72185,-3.25586 0.72185,-3.25586 0,0 15.50776,3.53381 15.50776,3.53381 0,0 -0.63786,2.86446 -0.63786,2.86446 0,0 -15.59175,-3.14241 -15.59175,-3.14241 m 2.56405,-10.58236 c 0,0 0.84873,-3.01779 0.84873,-3.01779 0,0 15.31105,4.30716 15.31105,4.30716 0,0 -0.84873,3.01786 -0.84873,3.01786 0,0 -15.31105,-4.30723 -15.31105,-4.30723 m 3.13739,-10.21556 c 0,0 1.10233,-3.1448 1.10233,-3.1448 0,0 14.94646,5.4394 14.94646,5.4394 0,0 -0.97174,2.77144 -0.97174,2.77144 0,0 -15.07705,-5.06604 -15.07705,-5.06604 m 3.8069,-10.1932 c 0,0 1.21633,-2.88935 1.21633,-2.88935 0,0 14.65892,6.17272 14.65892,6.17272 0,0 -1.21632,2.88927 -1.21632,2.88927 0,0 -14.65893,-6.17264 -14.65893,-6.17264 m 4.34851,-9.75572 c 0,0 1.46915,-2.98797 1.46915,-2.98797 0,0 14.16433,7.23609 14.16433,7.23609 0,0 -1.29608,2.6386 -1.29608,2.6386 0,0 -14.3374,-6.88672 -14.3374,-6.88672 m 4.90415,-9.486121 c 0,0 1.65397,-2.888681 1.65397,-2.888681 0,0 13.794388,7.918792 13.794388,7.918792 0,0 -1.465088,2.55005 -1.465088,2.55005 0,0 -13.98327,-7.580161 -13.98327,-7.580161 m 5.58308,-9.325786 c 0,0 1.81429,-2.788799 1.81429,-2.788799 0,0 13.182463,8.900542 13.182463,8.900542 0,0 -1.602915,2.467312 -1.602915,2.467312 0,0 -13.393838,-8.579055 -13.393838,-8.579055 m 6.00466,-8.824363 c 0,0 1.98503,-2.669015 1.98503,-2.669015 0,0 12.738255,9.525625 12.738255,9.525625 0,0 -1.759402,2.359455 -1.759402,2.359455 0,0 -12.963883,-9.216065 -12.963883,-9.216065 m 6.651333,-8.588 c 0,0 2.132297,-2.551392 2.132297,-2.551392 0,0 12.020344,10.41711 12.020344,10.41711 0,0 -1.886281,2.260467 -1.886281,2.260467 0,0 -12.26636,-10.126185 -12.26636,-10.126185 m 7.012195,-8.042077 c 0,0 2.287017,-2.413122 2.287017,-2.413122 0,0 11.508762,10.979804 11.508762,10.979804 0,0 -2.02801,2.134943 -2.02801,2.134943 0,0 -11.767769,-10.701625 -11.767769,-10.701625 m 7.621931,-7.734007 c 0,0 2.41948,-2.279624 2.41948,-2.279624 0,0 10.694134,11.774911 10.694134,11.774911 0,0 -2.141764,2.021271 -2.141764,2.021271 0,0 -10.97185,-11.516558 -10.97185,-11.516558 m 7.916985,-7.150741 c 0,0 2.556759,-2.124582 2.556759,-2.124582 0,0 10.12066,12.271488 10.12066,12.271488 0,0 -2.267049,1.879648 -2.267049,1.879648 0,0 -10.41037,-12.026554 -10.41037,-12.026554 m 8.485196,-6.774692 c 0,0 2.67303,-1.976772 2.67303,-1.976772 0,0 9.216698,12.964328 9.216698,12.964328 0,0 -2.365976,1.752782 -2.365976,1.752782 0,0 -9.523752,-12.740338 -9.523752,-12.740338 m 8.71101,-6.160044 c 0,0 2.791526,-1.80645 2.791526,-1.80645 0,0 8.58589,13.390541 8.58589,13.390541 0,0 -2.473364,1.596921 -2.473364,1.596921 0,0 -8.904052,-13.181012 -8.904052,-13.181012 m 9.232425,-5.72019 c 0,0 2.890209,-1.645819 2.890209,-1.645819 0,0 7.599211,13.974181 7.599211,13.974181 0,0 -2.55605,1.458875 -2.55605,1.458875 0,0 -7.93337,-13.787237 -7.93337,-13.787237 m 9.385864,-5.079006 c 0,0 2.988392,-1.461857 2.988392,-1.461857 0,0 6.915622,14.324961 6.915622,14.324961 0,0 -2.644088,1.290417 -2.644088,1.290417 0,0 -7.259926,-14.153521 -7.259926,-14.153521 m 9.853939,-4.580938 c 0,0 3.067924,-1.290492 3.067924,-1.290492 0,0 5.853839,14.790755 5.853839,14.790755 0,0 -2.709318,1.143427 -2.709318,1.143427 0,0 -6.212445,-14.64369 -6.212445,-14.64369 m 9.931631,-3.918062 c 0,0 3.144028,-1.095052 3.144028,-1.095052 0,0 5.12335,15.059468 5.12335,15.059468 0,0 -2.7766267,0.964906 -2.7766267,0.964906 0,0 -5.4907513,-14.929322 -5.4907513,-14.929322 m 10.3388166,-3.370982 c 0,0 3.0135408,-0.862565 3.0135408,-0.862565 0,0 4.3762982,15.293296 4.3762982,15.293296 0,0 -3.0135407,0.862564 -3.0135407,0.862564 0,0 -4.3762983,-15.293295 -4.3762983,-15.293295 M 7.523025,9.4967087 c 0,0 3.255047,-0.7118465 3.255047,-0.7118465 0,0 3.228198,15.5762458 3.228198,15.5762458 0,0 -2.868973,0.626798 -2.868973,0.626798 0,0 -3.614272,-15.4911973 -3.614272,-15.4911973 M 18.19918,7.3863633 c 0,0 3.097203,-0.4823412 3.097203,-0.4823412 0,0 2.447187,15.7178699 2.447187,15.7178699 0,0 -3.097204,0.482341 -3.097204,0.482341 0,0 -2.447186,-15.7178697 -2.447186,-15.7178697 M 28.791232,5.964161 c 0,0 3.318912,-0.3206663 3.318912,-0.3206663 0,0 1.257837,15.8574063 1.257837,15.8574063 0,0 -2.920487,0.284068 -2.920487,0.284068 0,0 -1.656262,-15.820808 -1.656262,-15.820808 m 10.65837,-0.8047219 c 0,0 3.333216,-0.1124793 3.333216,-0.1124793 0,0 0.456752,15.9007142 0.456752,15.9007142 0,0 -2.932077,0.09586 -2.932077,0.09586 0,0 -0.857891,-15.8840919 -0.857891,-15.8840919 M 50.339527,5.0000003 c 0,0 3.13378,0.068576 3.13378,0.068576 0,0 -0.347575,15.9034717 -0.347575,15.9034717 0,0 -3.133772,-0.06858 -3.133772,-0.06858 0,0 0.347567,-15.9034715 0.347567,-15.9034715 m 10.679278,0.4775002 c 0,0 3.322117,0.2722907 3.322117,0.2722907 0,0 -1.54657,15.8319136 -1.54657,15.8319136 0,0 -2.92563,-0.238524 -2.92563,-0.238524 0,0 1.150083,-15.8656803 1.150083,-15.8656803 M 71.64938,6.5655409 c 0,0 3.298704,0.4772726 3.298704,0.4772726 0,0 -2.335483,15.7348645 -2.335483,15.7348645 0,0 -2.905049,-0.423828 -2.905049,-0.423828 0,0 1.941828,-15.7883091 1.941828,-15.7883091 M 82.388632,8.330324 c 0,0 3.266451,0.6587003 3.266451,0.6587003 0,0 -3.503366,15.5166147 -3.503366,15.5166147 0,0 -2.879676,-0.576409 -2.879676,-0.576409 0,0 3.116591,-15.598906 3.116591,-15.598906 m 10.420717,2.354013 c 0,0 3.217584,0.862639 3.217584,0.862639 0,0 -4.267792,15.323931 -4.267792,15.323931 0,0 -2.836988,-0.761638 -2.836988,-0.761638 0,0 3.887196,-15.424932 3.887196,-15.424932 M 103.257,13.711586 c 0,0 2.97443,0.989131 2.97443,0.989131 0,0 -5.01819,15.094799 -5.01819,15.094799 0,0 -2.974432,-0.989131 -2.974432,-0.989131 0,0 5.018192,-15.094799 5.018192,-15.094799 m 10.05587,3.59352 c 0,0 3.089,1.240253 3.089,1.240253 0,0 -6.11311,14.685431 -6.11311,14.685431 0,0 -2.72842,-1.0952 -2.72842,-1.0952 0,0 5.75253,-14.830484 5.75253,-14.830484 m 10.00185,4.255874 c 0,0 2.83174,1.344309 2.83174,1.344309 0,0 -6.82013,14.370653 -6.82013,14.370653 0,0 -2.83174,-1.344235 -2.83174,-1.344235 0,0 6.82013,-14.370727 6.82013,-14.370727 m 9.54452,4.777422 c 0,0 2.91559,1.600573 2.91559,1.600573 0,0 -7.84279,13.838968 -7.84279,13.838968 0,0 -2.57995,-1.415569 -2.57995,-1.415569 0,0 7.50715,-14.023972 7.50715,-14.023972 m 9.41188,5.421885 c 0,0 2.64967,1.674889 2.64967,1.674889 0,0 -8.49766,13.446744 -8.49766,13.446744 0,0 -2.64967,-1.674964 -2.64967,-1.674964 0,0 8.49766,-13.446669 8.49766,-13.446669 m 8.89909,5.884399 c 0,0 2.70124,1.93667 2.70124,1.93667 0,0 -9.43731,12.804516 -9.43731,12.804516 0,0 -2.39384,-1.715587 -2.39384,-1.715587 0,0 9.12991,-13.025599 9.12991,-13.025599 m 8.69084,6.504712 c 0,0 2.43203,1.977741 2.43203,1.977741 0,0 -10.03421,12.3423 -10.03421,12.3423 0,0 -2.43205,-1.977815 -2.43205,-1.977815 0,0 10.03423,-12.342226 10.03423,-12.342226 m 8.13255,6.899992 c 0,0 2.45,2.243993 2.45,2.243993 0,0 -10.88366,11.599893 -10.88366,11.599893 0,0 -2.17308,-1.990188 -2.17308,-1.990188 0,0 10.60674,-11.853698 10.60674,-11.853698 m 7.85166,7.490861 c 0,0 2.18208,2.250628 2.18208,2.250628 0,0 -11.4185,11.073723 -11.4185,11.073723 0,0 -2.18207,-2.250628 -2.18207,-2.250628 0,0 11.41849,-11.073723 11.41849,-11.073723 m 7.25638,7.814361 c 0,0 2.16545,2.519191 2.16545,2.519191 0,0 -12.17207,10.23941 -12.17207,10.23941 0,0 -1.92084,-2.235199 -1.92084,-2.235199 0,0 11.92746,-10.523402 11.92746,-10.523402 m 6.90563,8.370495 c 0,0 1.90235,2.491537 1.90235,2.491537 0,0 -12.64113,9.654205 -12.64113,9.654205 0,0 -1.90235,-2.491612 -1.90235,-2.491612 0,0 12.64113,-9.65413 12.64113,-9.65413 m 6.28024,8.61953 c 0,0 1.8507,2.759654 1.8507,2.759654 0,0 -13.29301,8.734543 -13.29301,8.734543 0,0 -1.64041,-2.447634 -1.64041,-2.447634 0,0 13.08272,-9.046563 13.08272,-9.046563 m 5.86259,9.134892 c 0,0 1.59504,2.698681 1.59504,2.698681 0,0 -13.69201,8.09463 -13.69201,8.09463 0,0 -1.59504,-2.69876 -1.59504,-2.69876 0,0 13.69201,-8.094551 13.69201,-8.094551 m 5.213,9.307371 c 0,0 1.50885,2.9624 1.50885,2.9624 0,0 -14.23495,7.09618 -14.23495,7.09618 0,0 -1.33544,-2.62459 -1.33544,-2.62459 0,0 14.06154,-7.43399 14.06154,-7.43399 m 4.73281,9.77459 c 0,0 1.26233,2.86952 1.26233,2.86952 0,0 -14.55847,6.4061 -14.55847,6.4061 0,0 -1.26233,-2.86953 -1.26233,-2.86953 0,0 14.55847,-6.40609 14.55847,-6.40609 m 4.0647,9.8682 c 0,0 1.14387,3.12415 1.14387,3.12415 0,0 -14.98339,5.33684 -14.98339,5.33684 0,0 -1.01045,-2.76338 -1.01045,-2.76338 0,0 14.84997,-5.69761 14.84997,-5.69761 m 3.52953,10.27877 c 0,0 0.90701,3.00086 0.90701,3.00086 0,0 -15.22479,4.60293 -15.22479,4.60293 0,0 -0.90701,-3.00086 -0.90701,-3.00086 0,0 15.22479,-4.60293 15.22479,-4.60293 m 2.84919,10.29091 c 0,0 0.76132,3.24155 0.76132,3.24155 0,0 -15.52124,3.47426 -15.52124,3.47426 0,0 -0.67144,-2.86192 -0.67144,-2.86192 0,0 15.43136,-3.85389 15.43136,-3.85389 m 2.27176,10.63626 c 0,0 0.53316,3.08926 0.53316,3.08926 0,0 -15.67343,2.70577 -15.67343,2.70577 0,0 -0.53317,-3.08927 -0.53317,-3.08927 0,0 15.67344,-2.70576 15.67344,-2.70576 m 1.58641,10.56484 c 0,0 0.36919,3.31169 0.36919,3.31169 0,0 -15.83107,1.53409 -15.83107,1.53409 0,0 -0.32622,-2.91902 -0.32622,-2.91902 0,0 15.7881,-1.92676 15.7881,-1.92676 m 0.97212,10.64081 c 0,0 0.16072,3.32928 0.16072,3.32928 0,0 -15.88781,0.74382 -15.88781,0.74382 0,0 -0.13725,-2.9334 -0.13725,-2.9334 0,0 15.86434,-1.1397 15.86434,-1.1397 m 0.31781,10.88051 c 0,0 -0.0221,3.33376 -0.0221,3.33376 0,0 -15.89888,-0.44843 -15.89888,-0.44843 0,0 0.0158,-2.93586 0.0158,-2.93586 0,0 15.90512,0.0507 15.90512,0.0507"
     id="rect16260" /><g
     id="g4986"><path
       id="path931-2"
       d="m 287.54661,111.98912 q 0,8.16517 -5.54616,12.51734 -5.54614,4.3522 -15.71409,4.3522 h -8.70438 v 23.26302 h -3.92851 V 95.812862 h 13.78834 q 20.1048,0 20.1048,16.176258 z m -29.96463,13.48022 h 7.74151 q 9.51318,0 13.74983,-3.11971 4.23664,-3.15822 4.23664,-10.20644 0,-6.50903 -4.00556,-9.62874 -4.00554,-3.15822 -12.4018,-3.15822 h -9.32062 z"
       style="font-style:normal;font-variant:normal;font-weight:300;font-stretch:normal;font-size:medium;line-height:1.25;font-family:'Open Sans';-inkscape-font-specification:'Open Sans, Light';font-variant-ligatures:normal;font-variant-caps:normal;font-variant-numeric:normal;font-feature-settings:normal;text-align:start;letter-spacing:-1.44000006px;word-spacing:0px;writing-mode:lr-tb;text-anchor:start;fill:#547ab0;fill-opacity:0.98917745;stroke:none;stroke-width:1.97188997"
       inkscape:connector-curvature="0" /><path
       id="path933-8"
       d="m 345.56449,123.89023 q 0,13.40319 -6.70159,21.22172 -6.7016,7.78003 -18.48717,7.78003 -11.74705,0 -18.44865,-7.78003 -6.70159,-7.81853 -6.70159,-21.29874 0,-13.44171 6.74012,-21.1447 6.77861,-7.7415 18.48716,-7.7415 11.78555,0 18.44865,7.78001 6.66307,7.74151 6.66307,21.18321 z m -46.06384,0 q 0,12.09368 5.39209,18.71826 5.39207,6.58604 15.48299,6.58604 10.16795,0 15.52151,-6.54753 5.39209,-6.54754 5.39209,-18.75677 0,-12.17072 -5.39209,-18.64122 -5.35356,-6.509015 -15.44447,-6.509015 -10.0524,0 -15.52152,6.547525 -5.4306,6.54754 -5.4306,18.60271 z"
       style="font-style:normal;font-variant:normal;font-weight:300;font-stretch:normal;font-size:medium;line-height:1.25;font-family:'Open Sans';-inkscape-font-specification:'Open Sans, Light';font-variant-ligatures:normal;font-variant-caps:normal;font-variant-numeric:normal;font-feature-settings:normal;text-align:start;letter-spacing:-1.44000006px;word-spacing:0px;writing-mode:lr-tb;text-anchor:start;fill:#547ab0;fill-opacity:0.98917745;stroke:none;stroke-width:1.97188997"
       inkscape:connector-curvature="0" /><path
       id="path935-9"
       d="M 353.24337,152.12168 V 95.812862 h 3.92852 v 52.611388 h 26.8449 v 3.69743 z"
       style="font-style:normal;font-variant:normal;font-weight:300;font-stretch:normal;font-size:medium;line-height:1.25;font-family:'Open Sans';-inkscape-font-specification:'Open Sans, Light';font-variant-ligatures:normal;font-variant-caps:normal;font-variant-numeric:normal;font-feature-settings:normal;text-align:start;letter-spacing:-1.44000006px;word-spacing:0px;writing-mode:lr-tb;text-anchor:start;fill:#547ab0;fill-opacity:0.98917745;stroke:none;stroke-width:1.97188997"
       inkscape:connector-curvature="0" /><path
       id="path937-7"
       d="M 391.69567,152.12168 V 95.812862 h 3.92851 v 56.308818 z"
       style="font-style:normal;font-variant:normal;font-weight:300;font-stretch:normal;font-size:medium;line-height:1.25;font-family:'Open Sans';-inkscape-font-specification:'Open Sans, Light';font-variant-ligatures:normal;font-variant-caps:normal;font-variant-numeric:normal;font-feature-settings:normal;text-align:start;letter-spacing:-1.44000006px;word-spacing:0px;writing-mode:lr-tb;text-anchor:start;fill:#547ab0;fill-opacity:0.98917745;stroke:none;stroke-width:1.97188997"
       inkscape:connector-curvature="0" /><path
       id="path939-3"
       d="m 425.5647,152.12168 h -3.96703 V 99.510294 h -18.29458 v -3.697432 h 40.55619 v 3.697432 H 425.5647 Z"
       style="font-style:normal;font-variant:normal;font-weight:300;font-stretch:normal;font-size:medium;line-height:1.25;font-family:'Open Sans';-inkscape-font-specification:'Open Sans, Light';font-variant-ligatures:normal;font-variant-caps:normal;font-variant-numeric:normal;font-feature-settings:normal;text-align:start;letter-spacing:-1.44000006px;word-spacing:0px;writing-mode:lr-tb;text-anchor:start;fill:#547ab0;fill-opacity:0.98917745;stroke:none;stroke-width:1.97188997"
       inkscape:connector-curvature="0" /><path
       id="path941-6"
       d="M 482.31161,152.12168 H 451.5382 V 95.812862 h 30.77341 v 3.62039 h -26.84489 v 21.298758 h 25.34282 v 3.62041 h -25.34282 v 24.14885 h 26.84489 z"
       style="font-style:normal;font-variant:normal;font-weight:300;font-stretch:normal;font-size:medium;line-height:1.25;font-family:'Open Sans';-inkscape-font-specification:'Open Sans, Light';font-variant-ligatures:normal;font-variant-caps:normal;font-variant-numeric:normal;font-feature-settings:normal;text-align:start;letter-spacing:-1.44000006px;word-spacing:0px;writing-mode:lr-tb;text-anchor:start;fill:#547ab0;fill-opacity:0.98917745;stroke:none;stroke-width:1.97188997"
       inkscape:connector-curvature="0" /><path
       id="path943-1"
       d="m 517.028,98.54742 q -10.59161,0 -16.67696,6.77863 -6.08535,6.77861 -6.08535,18.56418 0,12.05517 5.73871,18.71826 5.73873,6.66308 16.40737,6.66308 7.08673,0 13.01804,-1.8102 v 3.46633 q -5.58467,1.96428 -13.94241,1.96428 -11.86259,0 -18.67973,-7.66448 -6.81714,-7.66446 -6.81714,-21.41429 0,-8.58883 3.23524,-15.13637 3.27377,-6.54754 9.35914,-10.090909 6.12387,-3.581899 14.21201,-3.581899 8.24218,0 14.75121,3.081197 l -1.57911,3.543371 Q 523.80663,98.54742 517.028,98.54742 Z"
       style="font-style:normal;font-variant:normal;font-weight:300;font-stretch:normal;font-size:medium;line-height:1.25;font-family:'Open Sans';-inkscape-font-specification:'Open Sans, Light';font-variant-ligatures:normal;font-variant-caps:normal;font-variant-numeric:normal;font-feature-settings:normal;text-align:start;letter-spacing:-1.44000006px;word-spacing:0px;writing-mode:lr-tb;text-anchor:start;fill:#547ab0;fill-opacity:0.98917745;stroke:none;stroke-width:1.97188997"
       inkscape:connector-curvature="0" /><path
       id="path945-2"
       d="m 580.16841,152.12168 h -3.96705 L 542.84743,102.1293 h -0.30811 q 0.46217,8.93546 0.46217,13.48021 v 36.51217 h -3.77445 V 95.812862 h 3.92852 l 33.31541,49.915338 h 0.23109 q -0.34664,-6.93269 -0.34664,-13.17211 V 95.812862 h 3.81299 z"
       style="font-style:normal;font-variant:normal;font-weight:300;font-stretch:normal;font-size:medium;line-height:1.25;font-family:'Open Sans';-inkscape-font-specification:'Open Sans, Light';font-variant-ligatures:normal;font-variant-caps:normal;font-variant-numeric:normal;font-feature-settings:normal;text-align:start;letter-spacing:-1.44000006px;word-spacing:0px;writing-mode:lr-tb;text-anchor:start;fill:#547ab0;fill-opacity:0.98917745;stroke:none;stroke-width:1.97188997"
       inkscape:connector-curvature="0" /><path
       id="path947-9"
       d="M 587.84728,152.12168 V 95.812862 h 3.92854 v 56.308818 z"
       style="font-style:normal;font-variant:normal;font-weight:300;font-stretch:normal;font-size:medium;line-height:1.25;font-family:'Open Sans';-inkscape-font-specification:'Open Sans, Light';font-variant-ligatures:normal;font-variant-caps:normal;font-variant-numeric:normal;font-feature-settings:normal;text-align:start;letter-spacing:-1.44000006px;word-spacing:0px;writing-mode:lr-tb;text-anchor:start;fill:#547ab0;fill-opacity:0.98917745;stroke:none;stroke-width:1.97188997"
       inkscape:connector-curvature="0" /><path
       id="path949-3"
       d="m 626.49219,98.54742 q -10.59162,0 -16.67697,6.77863 -6.08537,6.77861 -6.08537,18.56418 0,12.05517 5.73873,18.71826 5.73872,6.66308 16.40735,6.66308 7.08676,0 13.01805,-1.8102 v 3.46633 q -5.58465,1.96428 -13.94239,1.96428 -11.86262,0 -18.67975,-7.66448 -6.81714,-7.66446 -6.81714,-21.41429 0,-8.58883 3.23526,-15.13637 3.27377,-6.54754 9.35912,-10.090909 6.12388,-3.581899 14.212,-3.581899 8.24221,0 14.75122,3.081197 l -1.57911,3.543371 q -6.16239,-3.08118 -12.941,-3.08118 z"
       style="font-style:normal;font-variant:normal;font-weight:300;font-stretch:normal;font-size:medium;line-height:1.25;font-family:'Open Sans';-inkscape-font-specification:'Open Sans, Light';font-variant-ligatures:normal;font-variant-caps:normal;font-variant-numeric:normal;font-feature-settings:normal;text-align:start;letter-spacing:-1.44000006px;word-spacing:0px;writing-mode:lr-tb;text-anchor:start;fill:#547ab0;fill-opacity:0.98917745;stroke:none;stroke-width:1.97188997"
       inkscape:connector-curvature="0" /><path
       id="path951-1"
       d="m 699.03022,123.89023 q 0,13.40319 -6.70159,21.22172 -6.7016,7.78003 -18.48716,7.78003 -11.74706,0 -18.44864,-7.78003 -6.70161,-7.81853 -6.70161,-21.29874 0,-13.44171 6.74012,-21.1447 6.77863,-7.7415 18.48716,-7.7415 11.78557,0 18.44864,7.78001 6.66308,7.74151 6.66308,21.18321 z m -46.06384,0 q 0,12.09368 5.39209,18.71826 5.39209,6.58604 15.483,6.58604 10.16794,0 15.52152,-6.54753 5.39207,-6.54754 5.39207,-18.75677 0,-12.17072 -5.39207,-18.64122 -5.35358,-6.509015 -15.44449,-6.509015 -10.0524,0 -15.52152,6.547525 -5.4306,6.54754 -5.4306,18.60271 z"
       style="font-style:normal;font-variant:normal;font-weight:300;font-stretch:normal;font-size:medium;line-height:1.25;font-family:'Open Sans';-inkscape-font-specification:'Open Sans, Light';font-variant-ligatures:normal;font-variant-caps:normal;font-variant-numeric:normal;font-feature-settings:normal;text-align:start;letter-spacing:-1.44000006px;word-spacing:0px;writing-mode:lr-tb;text-anchor:start;fill:#547ab0;fill-opacity:0.98917745;stroke:none;stroke-width:1.97188997"
       inkscape:connector-curvature="0" /><path
       id="path953-9"
       d="m 774.07858,123.89023 q 0,13.40319 -6.70161,21.22172 -6.70158,7.78003 -18.48715,7.78003 -11.74705,0 -18.44865,-7.78003 -6.70159,-7.81853 -6.70159,-21.29874 0,-13.44171 6.7401,-21.1447 6.77863,-7.7415 18.48718,-7.7415 11.78555,0 18.44865,7.78001 6.66307,7.74151 6.66307,21.18321 z m -46.06384,0 q 0,12.09368 5.39209,18.71826 5.39208,6.58604 15.48299,6.58604 10.16795,0 15.52151,-6.54753 5.39209,-6.54754 5.39209,-18.75677 0,-12.17072 -5.39209,-18.64122 -5.35356,-6.509015 -15.44447,-6.509015 -10.0524,0 -15.52152,6.547525 -5.4306,6.54754 -5.4306,18.60271 z"
       style="font-style:normal;font-variant:normal;font-weight:300;font-stretch:normal;font-size:medium;line-height:1.25;font-family:'Open Sans';-inkscape-font-specification:'Open Sans, Light';font-variant-ligatures:normal;font-variant-caps:normal;font-variant-numeric:normal;font-feature-settings:normal;text-align:start;letter-spacing:-1.44000006px;word-spacing:0px;writing-mode:lr-tb;text-anchor:start;fill:#547ab0;fill-opacity:0.98917745;stroke:none;stroke-width:1.97188997"
       inkscape:connector-curvature="0" /><path
       id="path955-4"
       d="m 817.81642,111.98912 q 0,8.16517 -5.54614,12.51734 -5.54615,4.3522 -15.71409,4.3522 h -8.70437 v 23.26302 H 783.9233 V 95.812862 h 13.78834 q 20.10478,0 20.10478,16.176258 z m -29.9646,13.48022 h 7.7415 q 9.51319,0 13.74983,-3.11971 4.23665,-3.15822 4.23665,-10.20644 0,-6.50903 -4.00556,-9.62874 -4.00556,-3.15822 -12.40181,-3.15822 h -9.32061 z"
       style="font-style:normal;font-variant:normal;font-weight:300;font-stretch:normal;font-size:medium;line-height:1.25;font-family:'Open Sans';-inkscape-font-specification:'Open Sans, Light';font-variant-ligatures:normal;font-variant-caps:normal;font-variant-numeric:normal;font-feature-settings:normal;text-align:start;letter-spacing:-1.44000006px;word-spacing:0px;writing-mode:lr-tb;text-anchor:start;fill:#547ab0;fill-opacity:0.98917745;stroke:none;stroke-width:1.97188997"
       inkscape:connector-curvature="0" /><path
       id="path957-7"
       d="M 858.43458,152.12168 H 827.66115 V 95.812862 h 30.77343 v 3.62039 h -26.84492 v 21.298758 h 25.34283 v 3.62041 h -25.34283 v 24.14885 h 26.84492 z"
       style="font-style:normal;font-variant:normal;font-weight:300;font-stretch:normal;font-size:medium;line-height:1.25;font-family:'Open Sans';-inkscape-font-specification:'Open Sans, Light';font-variant-ligatures:normal;font-variant-caps:normal;font-variant-numeric:normal;font-feature-settings:normal;text-align:start;letter-spacing:-1.44000006px;word-spacing:0px;writing-mode:lr-tb;text-anchor:start;fill:#547ab0;fill-opacity:0.98917745;stroke:none;stroke-width:1.97188997"
       inkscape:connector-curvature="0" /><path
       id="path959-8"
       d="m 909.22068,152.12168 h -3.96705 L 871.89972,102.1293 h -0.30812 q 0.46217,8.93546 0.46217,13.48021 v 36.51217 h -3.77446 V 95.812862 h 3.92852 l 33.31542,49.915338 h 0.23109 q -0.34664,-6.93269 -0.34664,-13.17211 V 95.812862 h 3.81298 z"
       style="font-style:normal;font-variant:normal;font-weight:300;font-stretch:normal;font-size:medium;line-height:1.25;font-family:'Open Sans';-inkscape-font-specification:'Open Sans, Light';font-variant-ligatures:normal;font-variant-caps:normal;font-variant-numeric:normal;font-feature-settings:normal;text-align:start;letter-spacing:-1.44000006px;word-spacing:0px;writing-mode:lr-tb;text-anchor:start;fill:#547ab0;fill-opacity:0.98917745;stroke:none;stroke-width:1.97188997"
       inkscape:connector-curvature="0" /><path
       id="path1155-4"
       d="m 260.9211,192.83278 v 52.20806 q 0,12.16212 5.11699,17.72403 5.11695,5.48777 15.87005,5.48777 14.38688,0 21.13535,-7.2676 6.82267,-7.26759 6.82267,-23.65676 v -44.4955 h 7.26759 v 80.611 h -6.22939 l -1.33486,-11.12387 h -0.44493 q -7.86087,12.60708 -27.95801,12.60708 -27.51305,0 -27.51305,-29.44118 v -52.65303 z"
       style="font-style:normal;font-variant:normal;font-weight:300;font-stretch:normal;font-size:medium;line-height:1.25;font-family:'Open Sans';-inkscape-font-specification:'Open Sans, Light';font-variant-ligatures:normal;font-variant-caps:normal;font-variant-numeric:normal;font-feature-settings:normal;text-align:start;letter-spacing:0px;word-spacing:0px;writing-mode:lr-tb;text-anchor:start;fill:#547ab0;fill-opacity:0.98917745;stroke:none;stroke-width:3.7969718"
       inkscape:connector-curvature="0" /><path
       id="path1157-5"
       d="m 396.28263,273.44378 v -52.28221 q 0,-12.16208 -5.11698,-17.64988 -5.11699,-5.56192 -15.87009,-5.56192 -14.46104,0 -21.20951,7.34175 -6.67431,7.26759 -6.67431,23.65677 v 44.49549 h -7.34179 v -80.611 h 6.22939 l 1.40902,11.04972 h 0.44496 q 7.86087,-12.60708 27.95802,-12.60708 27.43889,0 27.43889,29.44122 v 52.72714 z"
       style="font-style:normal;font-variant:normal;font-weight:300;font-stretch:normal;font-size:medium;line-height:1.25;font-family:'Open Sans';-inkscape-font-specification:'Open Sans, Light';font-variant-ligatures:normal;font-variant-caps:normal;font-variant-numeric:normal;font-feature-settings:normal;text-align:start;letter-spacing:0px;word-spacing:0px;writing-mode:lr-tb;text-anchor:start;fill:#547ab0;fill-opacity:0.98917745;stroke:none;stroke-width:3.7969718"
       inkscape:connector-curvature="0" /><path
       id="path1159-0"
       d="m 434.57979,273.44378 h -7.34175 v -80.611 h 7.34175 z m -8.09047,-105.39551 c 0.0888,-2.09532 2.43044,-4.40908 4.52724,-4.36898 2.28585,0.0437 4.81065,2.66255 4.74978,4.94798 -0.0585,2.20134 -2.62279,4.62529 -4.82215,4.51551 -2.25305,-0.11239 -4.55037,-2.84066 -4.45487,-5.09451 z"
       style="font-style:normal;font-variant:normal;font-weight:300;font-stretch:normal;font-size:medium;line-height:1.25;font-family:'Open Sans';-inkscape-font-specification:'Open Sans, Light';font-variant-ligatures:normal;font-variant-caps:normal;font-variant-numeric:normal;font-feature-settings:normal;text-align:start;letter-spacing:0px;word-spacing:0px;writing-mode:lr-tb;text-anchor:start;fill:#547ab0;fill-opacity:0.98917745;stroke:none;stroke-width:3.7969718"
       inkscape:connector-curvature="0" /><path
       id="path1161-3"
       d="m 487.92235,231.98882 -28.10632,-39.15604 h 8.45415 l 24.02758,33.9649 23.80511,-33.9649 h 8.08334 l -27.6614,39.15604 29.66369,41.45496 h -8.5283 l -25.36244,-35.96719 -25.51075,35.96719 h -8.08338 z"
       style="font-style:normal;font-variant:normal;font-weight:300;font-stretch:normal;font-size:medium;line-height:1.25;font-family:'Open Sans';-inkscape-font-specification:'Open Sans, Light';font-variant-ligatures:normal;font-variant-caps:normal;font-variant-numeric:normal;font-feature-settings:normal;text-align:start;letter-spacing:0px;word-spacing:0px;writing-mode:lr-tb;text-anchor:start;fill:#547ab0;fill-opacity:0.98917745;stroke:none;stroke-width:3.7969718"
       inkscape:connector-curvature="0" /><path
       id="path1163-6"
       d="M 585.07085,273.44378 V 165.02307 h 7.56426 v 101.30147 h 51.68893 v 7.11924 z"
       style="font-style:normal;font-variant:normal;font-weight:300;font-stretch:normal;font-size:medium;line-height:1.25;font-family:'Open Sans';-inkscape-font-specification:'Open Sans, Light';font-variant-ligatures:normal;font-variant-caps:normal;font-variant-numeric:normal;font-feature-settings:normal;text-align:start;letter-spacing:0px;word-spacing:0px;writing-mode:lr-tb;text-anchor:start;fill:#547ab0;fill-opacity:0.98917745;stroke:none;stroke-width:3.7969718"
       inkscape:connector-curvature="0" /><path
       id="path1165-1"
       d="m 723.69905,235.17767 h -44.05053 l -15.12847,38.26611 h -8.37999 l 43.6056,-108.86567 h 4.82033 l 42.71571,108.86567 h -8.52834 z m -41.30665,-6.82266 h 38.78523 l -14.75765,-39.08189 q -1.85399,-4.59787 -4.44956,-12.75536 -2.00229,7.11929 -4.3754,12.90367 z"
       style="font-style:normal;font-variant:normal;font-weight:300;font-stretch:normal;font-size:medium;line-height:1.25;font-family:'Open Sans';-inkscape-font-specification:'Open Sans, Light';font-variant-ligatures:normal;font-variant-caps:normal;font-variant-numeric:normal;font-feature-settings:normal;text-align:start;letter-spacing:0px;word-spacing:0px;writing-mode:lr-tb;text-anchor:start;fill:#547ab0;fill-opacity:0.98917745;stroke:none;stroke-width:3.7969718"
       inkscape:connector-curvature="0" /><path
       id="path1167-0"
       d="m 759.0977,165.02307 h 29.73785 q 20.0971,0 29.51534,6.82263 9.4182,6.82267 9.4182,20.61627 0,9.41824 -5.78439,15.72174 -5.71026,6.22939 -16.75998,8.00922 v 0.44493 q 12.97786,1.92814 19.0589,8.23168 6.15519,6.22935 6.15519,17.42742 0,14.98015 -9.93732,23.06349 -9.93732,8.08333 -28.18048,8.08333 H 759.0977 Z m 7.56425,48.27763 h 23.87923 q 15.27682,0 22.1736,-5.04283 6.97097,-5.11696 6.97097,-15.94421 0,-10.82726 -7.86087,-15.72174 -7.78672,-4.89453 -23.28599,-4.89453 h -21.87694 z m 0,6.67432 v 46.79444 h 25.51075 q 30.10862,0 30.10862,-24.4725 0,-22.32194 -31.74014,-22.32194 z"
       style="font-style:normal;font-variant:normal;font-weight:300;font-stretch:normal;font-size:medium;line-height:1.25;font-family:'Open Sans';-inkscape-font-specification:'Open Sans, Light';font-variant-ligatures:normal;font-variant-caps:normal;font-variant-numeric:normal;font-feature-settings:normal;text-align:start;letter-spacing:0px;word-spacing:0px;writing-mode:lr-tb;text-anchor:start;fill:#547ab0;fill-opacity:0.98917745;stroke:none;stroke-width:3.7969718"
       inkscape:connector-curvature="0" /><path
       id="path1169-6"
       d="m 909.22059,245.48581 q 0,13.57109 -10.01148,21.50616 -9.93736,7.93502 -26.47484,7.93502 -19.87464,0 -30.47943,-4.3754 v -7.56425 q 11.71715,4.96868 29.88615,4.96868 13.34868,0 21.13539,-6.08104 7.86087,-6.15523 7.86087,-16.09255 0,-6.1552 -2.59557,-10.15983 -2.59557,-4.07874 -8.45415,-7.4159 -5.85857,-3.33716 -17.20495,-7.19344 -16.61164,-5.71027 -22.98933,-12.31043 -6.30355,-6.67431 -6.30355,-17.72403 0,-12.16212 9.49239,-19.80053 9.56655,-7.71252 24.5467,-7.71252 15.27678,0 28.69961,5.78442 l -2.74392,6.526 q -13.49695,-5.63611 -25.80738,-5.63611 -12.0138,0 -19.13309,5.56192 -7.11924,5.56196 -7.11924,15.12851 0,6.00688 2.1506,9.86316 2.22476,3.85628 7.19344,6.97094 4.96864,3.04054 17.0566,7.34178 12.68124,4.37537 19.0589,8.52831 6.3777,4.07874 9.26993,9.34404 2.96635,5.19114 2.96635,12.60709 z"
       style="font-style:normal;font-variant:normal;font-weight:300;font-stretch:normal;font-size:medium;line-height:1.25;font-family:'Open Sans';-inkscape-font-specification:'Open Sans, Light';font-variant-ligatures:normal;font-variant-caps:normal;font-variant-numeric:normal;font-feature-settings:normal;text-align:start;letter-spacing:0px;word-spacing:0px;writing-mode:lr-tb;text-anchor:start;fill:#547ab0;fill-opacity:0.98917745;stroke:none;stroke-width:3.7969718"
       inkscape:connector-curvature="0" /></g></g>
</svg>